<?xml version="1.0" encoding="UTF-8" standalone="no"?>
<svg
   xmlns:dc="http://purl.org/dc/elements/1.1/"
   xmlns:cc="http://creativecommons.org/ns#"
   xmlns:rdf="http://www.w3.org/1999/02/22-rdf-syntax-ns#"
   xmlns:svg="http://www.w3.org/2000/svg"
   xmlns="http://www.w3.org/2000/svg"
   xmlns:sodipodi="http://sodipodi.sourceforge.net/DTD/sodipodi-0.dtd"
   xmlns:inkscape="http://www.inkscape.org/namespaces/inkscape"
   version="1.1"
   width="203"
   height="203"
   style="clip-rule:evenodd;fill-rule:evenodd;image-rendering:optimizeQuality;shape-rendering:geometricPrecision;text-rendering:geometricPrecision"
   id="svg3336"
   inkscape:version="0.91 r13725"
   sodipodi:docname="pinterest.svg">
  <metadata
     id="metadata3710">
    <rdf:RDF>
      <cc:Work
         rdf:about="">
        <dc:format>image/svg+xml</dc:format>
        <dc:type
           rdf:resource="http://purl.org/dc/dcmitype/StillImage" />
        <dc:title />
      </cc:Work>
    </rdf:RDF>
  </metadata>
  <defs
     id="defs3708" />
  <sodipodi:namedview
     pagecolor="#ffffff"
     bordercolor="#666666"
     borderopacity="1"
     objecttolerance="10"
     gridtolerance="10"
     guidetolerance="10"
     inkscape:pageopacity="0"
     inkscape:pageshadow="2"
     inkscape:window-width="1459"
     inkscape:window-height="951"
     id="namedview3706"
     showgrid="false"
     inkscape:zoom="0.54333335"
     inkscape:cx="78.016295"
     inkscape:cy="82.104206"
     inkscape:window-x="39"
     inkscape:window-y="26"
     inkscape:window-maximized="0"
     inkscape:current-layer="layer9" />
  <g
     inkscape:groupmode="layer"
     id="layer9"
     inkscape:label="Layer 9"
     style="display:inline"
     transform="translate(0,-457)">
    <g
       style="clip-rule:evenodd;fill-rule:evenodd;image-rendering:optimizeQuality;shape-rendering:geometricPrecision;text-rendering:geometricPrecision"
       id="g3578"
       transform="translate(1.3492883,2.602847)">
      <path
         style="opacity:1;fill:#be1f2e"
         d="m 119.5,456.5 c 14.232,3.447 27.565,9.113 40,17 10.04,7.706 18.707,16.706 26,27 7.189,12.246 12.189,25.246 15,39 4.19,51.478 -16.81,88.311 -63,110.5 C 93.7862,664.417 55.9529,655.25 24,622.5 10.8964,606.352 2.72969,588.019 -0.5,567.5 c 0,-8 0,-16 0,-24 1.96574,-13.726 6.46574,-26.726 13.5,-39 25.191,-38.467 60.691,-54.467 106.5,-48 z"
         id="path3580"
         inkscape:connector-curvature="0" />
    </g>
    <g
       style="clip-rule:evenodd;fill-rule:evenodd;image-rendering:optimizeQuality;shape-rendering:geometricPrecision;text-rendering:geometricPrecision"
       id="g3598"
       transform="translate(1.3492883,2.602847)">
      <path
         style="opacity:1;fill:#ce545c"
         d="m 91.5,493.5 c 6.487,-1.154 13.154,-1.321 20,-0.5 2.604,0.39 4.938,1.224 7,2.5 -8.926,-1.537 -17.926,-2.204 -27,-2 z"
         id="path3600"
         inkscape:connector-curvature="0" />
    </g>
    <g
       style="clip-rule:evenodd;fill-rule:evenodd;image-rendering:optimizeQuality;shape-rendering:geometricPrecision;text-rendering:geometricPrecision"
       id="g3602"
       transform="translate(1.3492883,2.602847)">
      <path
         style="opacity:1;fill:#fcf9f9"
         d="m 91.5,493.5 c 9.074,-0.204 18.074,0.463 27,2 22.849,8.035 32.682,24.035 29.5,48 -1.819,22.133 -13.319,35.966 -34.5,41.5 -8.744,1.586 -16.0769,-0.914 -22,-7.5 -3.0831,11.417 -7.2498,22.417 -12.5,33 -2.9249,0.823 -5.7583,0.323 -8.5,-1.5 -1.5071,-1.473 -2.1738,-3.307 -2,-5.5 2.7904,-16.998 6.457,-33.831 11,-50.5 -1.9676,-6.632 -2.4676,-13.465 -1.5,-20.5 2.4499,-4.784 5.9499,-8.617 10.5,-11.5 8.8929,-0.609 13.56,3.558 14,12.5 -1.266,6.13 -2.933,12.13 -5,18 -1.473,2.517 -2.1397,5.35 -2,8.5 0.0056,2.033 0.3389,3.866 1,5.5 2.9585,6.473 7.959,8.639 15,6.5 10.276,-6.692 16.443,-16.192 18.5,-28.5 3.438,-23.054 -6.395,-35.721 -29.5,-38 -25.4511,1.947 -37.6178,15.613 -36.5,41 1.3243,3.982 3.1577,7.649 5.5,11 -0.9087,3.225 -1.9087,6.391 -3,9.5 -3.954,-0.221 -7.454,-1.721 -10.5,-4.5 -13.5365,-24.404 -9.0365,-44.904 13.5,-61.5 6.9664,-3.737 14.2998,-6.237 22,-7.5 z"
         id="path3604"
         inkscape:connector-curvature="0" />
    </g>
    <g
       style="clip-rule:evenodd;fill-rule:evenodd;image-rendering:optimizeQuality;shape-rendering:geometricPrecision;text-rendering:geometricPrecision"
       id="g3662"
       transform="translate(1.3492883,2.602847)">
      <path
         style="opacity:1;fill:#d97f86"
         d="m 97.5,551.5 c -0.7295,4.63 -1.0628,9.297 -1,14 -0.6611,-1.634 -0.9944,-3.467 -1,-5.5 -0.1397,-3.15 0.527,-5.983 2,-8.5 z"
         id="path3664"
         inkscape:connector-curvature="0" />
    </g>
  </g>
</svg>
