<?xml version="1.0" encoding="UTF-8" standalone="no"?>
<svg
   xmlns:dc="http://purl.org/dc/elements/1.1/"
   xmlns:cc="http://creativecommons.org/ns#"
   xmlns:rdf="http://www.w3.org/1999/02/22-rdf-syntax-ns#"
   xmlns:svg="http://www.w3.org/2000/svg"
   xmlns="http://www.w3.org/2000/svg"
   xmlns:sodipodi="http://sodipodi.sourceforge.net/DTD/sodipodi-0.dtd"
   xmlns:inkscape="http://www.inkscape.org/namespaces/inkscape"
   version="1.1"
   width="150"
   height="150"
   style="clip-rule:evenodd;fill-rule:evenodd;image-rendering:optimizeQuality;shape-rendering:geometricPrecision;text-rendering:geometricPrecision"
   id="svg4136"
   inkscape:version="0.91 r13725"
   sodipodi:docname="logo-peugeot.svg">
  <metadata
     id="metadata4166">
    <rdf:RDF>
      <cc:Work
         rdf:about="">
        <dc:format>image/svg+xml</dc:format>
        <dc:type
           rdf:resource="http://purl.org/dc/dcmitype/StillImage" />
        <dc:title></dc:title>
      </cc:Work>
    </rdf:RDF>
  </metadata>
  <defs
     id="defs4164" />
  <sodipodi:namedview
     pagecolor="#ffffff"
     bordercolor="#666666"
     borderopacity="1"
     objecttolerance="10"
     gridtolerance="10"
     guidetolerance="10"
     inkscape:pageopacity="0"
     inkscape:pageshadow="2"
     inkscape:window-width="1460"
     inkscape:window-height="920"
     id="namedview4162"
     showgrid="false"
     inkscape:zoom="2.6445159"
     inkscape:cx="161.24414"
     inkscape:cy="77.60102"
     inkscape:window-x="42"
     inkscape:window-y="16"
     inkscape:window-maximized="1"
     inkscape:current-layer="svg4136" />
  <g
     id="g4147"
     transform="matrix(0.78951424,0,0,0.78951424,2.1567248,34.871151)">
    <g
       transform="matrix(0.89825802,0,0,0.89825802,0.81470594,-43.227986)"
       id="g4142">
      <path
         inkscape:connector-curvature="0"
         id="path4144"
         d="m 168.5,149.5 c 0.667,14.667 1.333,29.333 2,44 0.934,1.739 0.934,3.405 0,5 -5.949,0.792 -11.949,1.292 -18,1.5 -3.034,1.191 -4.701,3.358 -5,6.5 -1.699,0.16 -3.366,-0.006 -5,-0.5 -2.706,-2.371 -5.039,-5.037 -7,-8 -0.594,-0.464 -1.261,-0.631 -2,-0.5 -1.419,-0.951 -3.085,-1.284 -5,-1 0,-5.333 0,-10.667 0,-16 0.843,-1.673 2.176,-2.84 4,-3.5 4.529,-0.679 9.029,-0.513 13.5,0.5 2.259,0.239 3.426,-0.761 3.5,-3 -2.677,-5.594 -7.177,-8.26 -13.5,-8 -5.278,-8.278 -10.945,-16.278 -17,-24 -9.027,12.194 -17.861,24.527 -26.5,37 -2.9465,0.821 -5.9465,1.321 -9,1.5 -3.0449,3.19 -6.7115,5.357 -11,6.5 -1.8536,-2.344 -4.187,-4.177 -7,-5.5 -4.9164,-1.161 -9.9164,-1.827 -15,-2 -0.5,-0.5 -1,-1 -1.5,-1.5 0.8508,-3.98 1.3508,-8.146 1.5,-12.5 0.4631,-3.859 -0.5369,-7.192 -3,-10 1.0686,-3.141 3.0686,-5.474 6,-7 7.7625,-2.095 14.2625,-0.261 19.5,5.5 1.5,2.167 3,4.333 4.5,6.5 3.831,-0.528 5.4977,-2.862 5,-7 0.3865,-3.089 -0.6135,-5.589 -3,-7.5 5.7447,-11.823 11.7447,-23.49 18,-35 -1.3333,-2 -2.6667,-4 -4,-6 -9.6495,-1.165 -19.3161,-1.332 -29,-0.5 -0.7776,3.147 -1.6109,6.313 -2.5,9.5 -0.6797,2.013 -2.013,3.346 -4,4 -2.2481,-1.914 -4.7481,-3.414 -7.5,-4.5 -6.0074,-0.132 -12.0074,-0.132 -18,0 -2.1574,-1.085 -2.3241,-2.251 -0.5,-3.5 0.9648,-4.901 0.4648,-9.568 -1.5,-14 0.6503,-3.1551 2.317,-5.6551 5,-7.5 14.3502,-1.6501 28.6836,-3.4835 43,-5.5 -5.64,-8.1402 -11.4733,-16.1402 -17.5,-24 -6.4434,1.1271 -12.9434,1.1271 -19.5,0 0.1633,-2.3568 -0.0034,-4.6902 -0.5,-7 -2.966,-1.5337 -6.1327,-2.7004 -9.5,-3.5 -0.5814,-0.8926 -0.9148,-1.8926 -1,-3 1.4172,-2.5943 2.0839,-5.4277 2,-8.5 -0.3915,-3.4635 -0.8915,-6.7969 -1.5,-10 1.2506,-2.8807 3.4173,-4.714 6.5,-5.5 6.2243,-1.0607 12.2243,-0.3941 18,2 10.8917,11.2213 21.3917,22.7213 31.5,34.5 2.5211,-2.5322 4.6878,-5.3655 6.5,-8.5 2.646,-0.4974 5.3127,-0.6641 8,-0.5 -0.092,3.5714 1.574,4.7381 5,3.5 1.951,-1.7342 2.951,-3.9009 3,-6.5 -7.363,0.3306 -14.6968,-0.0027 -22,-1 -0.4767,-0.9776 -1.1433,-1.8109 -2,-2.5 7.9931,-0.4997 15.993,-0.6664 24,-0.5 0.538,-5.4868 -1.795,-7.6534 -7,-6.5 -0.788,2.7845 -2.6209,3.9512 -5.5,3.5 C 93.0932,38.9636 89.5932,37.4636 86.5,35 85.6192,30.405 84.7858,25.905 84,21.5 c 5.8611,-3.4027 12.0278,-6.236 18.5,-8.5 0.757,-1.5122 1.757,-2.8455 3,-4 6.667,-2 13.333,-4 20,-6 5.575,0.35429 10.908,1.85429 16,4.5 4.06,8.3486 7.227,17.0153 9.5,26 4.014,-9.6569 10.014,-11.3235 18,-5 1.112,4.7232 1.612,9.5565 1.5,14.5 -0.333,4.1667 -0.667,8.3333 -1,12.5 -6.232,-2.5691 -9.232,-7.2357 -9,-14 0.082,-3.4798 0.748,-6.8131 2,-10 -3.095,0.1263 -4.928,1.793 -5.5,5 -1.863,9.0522 -1.53,18.0522 1,27 3.372,10.4164 7.039,20.7498 11,31 1.738,5.1904 2.905,10.524 3.5,16 -0.746,10.079 -6.079,16.079 -16,18 1.495,5.904 2.662,11.904 3.5,18 2.196,2.625 5.03,3.625 8.5,3 z"
         style="opacity:1;fill:#0e0e0e" />
    </g>
    <g
       transform="matrix(0.89825802,0,0,0.89825802,0.81470594,-43.227986)"
       id="g4146">
      <path
         inkscape:connector-curvature="0"
         id="path4148"
         d="m 127.5,8.5 c 3.437,0.63382 6.604,1.9672 9.5,4 10.544,25.101 11.211,50.4343 2,76 -2.127,4.7577 -4.627,9.2577 -7.5,13.5 6.037,9.236 12.204,18.403 18.5,27.5 2.037,7.605 3.704,15.271 5,23 2.305,2.43 5.138,3.43 8.5,3 0,12.333 0,24.667 0,37 -4.679,-0.166 -9.345,0.001 -14,0.5 -2.124,1.122 -3.957,2.622 -5.5,4.5 -2.162,-3.002 -4.995,-5.002 -8.5,-6 -1.147,-2.265 -1.314,-4.598 -0.5,-7 5.412,-2.396 10.912,-2.396 16.5,0 5.826,-7.403 5.16,-14.236 -2,-20.5 -3.232,-1.466 -6.565,-2.633 -10,-3.5 -6.639,-9.805 -13.472,-19.472 -20.5,-29 -10.167,14.167 -20.3333,28.333 -30.5,42.5 -5.0463,-0.056 -9.5463,1.444 -13.5,4.5 -5.772,-2.922 -11.9387,-4.255 -18.5,-4 -0.3097,-6.258 0.0236,-12.424 1,-18.5 2.6667,-0.667 5.3333,-0.667 8,0 2.888,3.222 5.388,6.722 7.5,10.5 5.4589,2.414 10.1256,1.08 14,-4 3.0354,-5.435 3.202,-10.935 0.5,-16.5 5.6508,-11.636 11.3174,-23.302 17,-35 -2.413,-4.155 -5.0793,-8.155 -8,-12 -12.9957,-0.4999 -25.9957,-0.6666 -39,-0.5 1.6349,4.183 1.3015,8.183 -1,12 -5.6904,-2.644 -11.6904,-3.644 -18,-3 -0.1655,-4.014 0.0012,-8.0138 0.5,-12 0.7504,-0.6258 1.5838,-1.1258 2.5,-1.5 16.0353,-1.578 32.0353,-3.4113 48,-5.5 C 81.2897,76.579 72.9563,64.7457 64.5,53 c -5.2276,1.1338 -10.561,1.4671 -16,1 -1.2262,-5.393 -4.5595,-8.5597 -10,-9.5 -0.1659,-5.0111 7e-4,-10.0111 0.5,-15 4.0785,-1.1295 8.2452,-1.2961 12.5,-0.5 12.1856,13.3513 24.1856,26.8513 36,40.5 3.661,-4.5014 7.161,-9.1681 10.5,-14 4.794,5.2796 9.627,5.2796 14.5,0 4.73,-6.6454 5.23,-13.6454 1.5,-21 -5.061,-5.9632 -10.561,-6.4632 -16.5,-1.5 -2.2008,0.8249 -4.0341,0.3249 -5.5,-1.5 -0.6667,-2.3333 -0.6667,-4.6667 0,-7 4.3578,-2.2873 8.858,-4.2873 13.5,-6 1.193,-2.0267 2.86,-3.5267 5,-4.5 5.889,-1.5753 11.556,-3.4086 17,-5.5 z"
         style="opacity:1;fill:#fafafa" />
    </g>
    <g
       transform="matrix(0.89825802,0,0,0.89825802,0.81470594,-43.227986)"
       id="g4150">
      <path
         inkscape:connector-curvature="0"
         id="path4152"
         d="m 151.5,65.5 c 4.962,11.7074 9.462,23.7074 13.5,36 0.667,4.333 0.667,8.667 0,13 -4.497,8.298 -9.83,8.965 -16,2 -3.048,-4.935 -6.215,-9.769 -9.5,-14.5 6.107,-11.4872 10.107,-23.6539 12,-36.5 z"
         style="opacity:1;fill:#f7f7f7" />
    </g>
  </g>
  <g
     inkscape:groupmode="layer"
     id="layer3"
     inkscape:label="Layer 1"
     transform="translate(0,-50)" />
</svg>
