<?xml version="1.0" encoding="UTF-8"?>
<!DOCTYPE svg PUBLIC "-//W3C//DTD SVG 1.1//EN" "http://www.w3.org/Graphics/SVG/1.1/DTD/svg11.dtd">
<svg xmlns="http://www.w3.org/2000/svg" version="1.1" width="301px" height="349px" style="shape-rendering:geometricPrecision; text-rendering:geometricPrecision; image-rendering:optimizeQuality; fill-rule:evenodd; clip-rule:evenodd" xmlns:xlink="http://www.w3.org/1999/xlink">
<g><path style="opacity:1" fill="#fefefe" d="M -0.5,-0.5 C 49.8333,-0.5 100.167,-0.5 150.5,-0.5C 149.031,5.40458 146.864,11.0713 144,16.5C 139.043,23.1263 133.709,29.4596 128,35.5C 125.676,38.4799 124.176,41.8133 123.5,45.5C 122.751,46.531 122.085,47.6976 121.5,49C 116.833,49.3333 112.167,49.6667 107.5,50C 106.263,50.2321 105.263,50.7321 104.5,51.5C 97.9136,53.4195 93.5802,57.7528 91.5,64.5C 92.325,65.3857 93.325,65.719 94.5,65.5C 96.4179,68.1379 99.0846,69.8046 102.5,70.5C 102.973,71.9063 103.973,72.573 105.5,72.5C 116.447,82.4508 125.114,94.1175 131.5,107.5C 133.576,114.063 135.243,120.729 136.5,127.5C 136.5,128.167 136.833,128.5 137.5,128.5C 138.375,133.335 138.375,138.002 137.5,142.5C 136.313,131.064 132.98,120.397 127.5,110.5C 127.206,107.246 125.873,104.579 123.5,102.5C 121.025,96.2195 117.525,90.5528 113,85.5C 109.845,81.4975 106.012,78.4975 101.5,76.5C 91.3542,69.3006 80.0209,66.8006 67.5,69C 65.5087,69.3736 63.842,70.207 62.5,71.5C 56.5701,73.0979 52.5701,76.7645 50.5,82.5C 47.4227,86.5446 45.5894,91.2113 45,96.5C 44.2015,100.781 44.7015,104.781 46.5,108.5C 47.7602,114.015 50.7602,118.348 55.5,121.5C 56.6499,122.85 57.3166,122.684 57.5,121C 56.438,117.211 56.2713,113.377 57,109.5C 59.4592,108.351 61.9592,108.351 64.5,109.5C 65.4735,112.135 67.1402,114.135 69.5,115.5C 70.9327,117.558 72.5994,117.392 74.5,115C 76.8098,114.503 79.1432,114.337 81.5,114.5C 81.8333,114.5 82.1667,114.5 82.5,114.5C 82.3347,118.182 82.5014,121.848 83,125.5C 83.3768,126.942 84.2101,127.942 85.5,128.5C 85.5106,130.017 86.1772,131.184 87.5,132C 86.5842,132.278 85.9175,132.778 85.5,133.5C 84.5,134.167 83.5,134.833 82.5,135.5C 82.7148,133.821 82.0481,132.821 80.5,132.5C 77.5,132.5 74.5,132.5 71.5,132.5C 72.405,137.886 72.7384,143.219 72.5,148.5C 72.3333,149.167 72.1667,149.833 72,150.5C 71.7216,149.584 71.2216,148.918 70.5,148.5C 68.3023,148.409 67.9689,149.075 69.5,150.5C 68.391,150.443 67.391,150.11 66.5,149.5C 66.0573,143.942 66.7239,138.609 68.5,133.5C 66.3926,132.532 64.0593,132.198 61.5,132.5C 62.5207,138.13 62.6873,143.796 62,149.5C 61.6174,150.056 61.1174,150.389 60.5,150.5C 60.5,150.167 60.5,149.833 60.5,149.5C 58.412,149.135 56.0787,149.135 53.5,149.5C 53.5,144.833 53.5,140.167 53.5,135.5C 55.9288,135.585 57.9288,136.585 59.5,138.5C 59.8333,137.5 60.1667,136.5 60.5,135.5C 60.3601,133.97 59.6935,132.97 58.5,132.5C 55.7276,132.22 53.2276,132.887 51,134.5C 50.6174,133.944 50.1174,133.611 49.5,133.5C 47.7354,132.539 45.7354,132.205 43.5,132.5C 43.5191,134.06 43.8524,135.56 44.5,137C 44.1639,138.03 43.4972,138.53 42.5,138.5C 42.5,136.833 42.5,135.167 42.5,133.5C 38.0189,132.352 33.3522,132.185 28.5,133C 27.2899,134.039 26.2899,135.206 25.5,136.5C 22.9206,140.53 22.9206,144.53 25.5,148.5C 25.7376,150.404 26.7376,151.738 28.5,152.5C 30.8333,152.5 33.1667,152.5 35.5,152.5C 35.5,151.5 35.5,150.5 35.5,149.5C 33.412,149.135 31.0787,149.135 28.5,149.5C 28.3343,145.154 28.501,140.821 29,136.5C 30.0113,135.663 31.1779,135.33 32.5,135.5C 33.7802,139.437 35.1135,139.437 36.5,135.5C 37.659,138.348 38.9924,141.015 40.5,143.5C 40.5987,146.237 40.2653,148.904 39.5,151.5C 41.6934,152.797 44.0268,152.797 46.5,151.5C 46.3764,150.893 46.0431,150.56 45.5,150.5C 45.5,148.5 45.5,146.5 45.5,144.5C 46.083,141.053 47.4163,138.053 49.5,135.5C 50.1667,135.833 50.8333,136.167 51.5,136.5C 51.5,140.5 51.5,144.5 51.5,148.5C 49.8906,145.851 49.0572,142.851 49,139.5C 47.3809,145.032 48.8809,149.366 53.5,152.5C 55.5,152.5 57.5,152.5 59.5,152.5C 60.1667,152.5 60.8333,152.5 61.5,152.5C 64.7484,152.762 67.7484,152.762 70.5,152.5C 71.1667,152.5 71.8333,152.5 72.5,152.5C 75.8788,152.678 79.0454,152.678 82,152.5C 81.6011,149.549 81.1011,146.549 80.5,143.5C 79.8106,142.226 78.9772,142.226 78,143.5C 77.5026,140.854 77.3359,138.187 77.5,135.5C 78.8333,136.167 80.1667,136.833 81.5,137.5C 81.8333,137.5 82.1667,137.5 82.5,137.5C 82.372,139.655 82.872,141.655 84,143.5C 86.4148,144.411 87.9148,146.078 88.5,148.5C 88.5,149.167 88.1667,149.5 87.5,149.5C 86.5326,148.194 85.1993,147.527 83.5,147.5C 83.2053,149.735 83.5386,151.735 84.5,153.5C 91.902,154.119 94.2354,151.119 91.5,144.5C 90.578,142.184 88.9113,140.517 86.5,139.5C 86.1568,137.517 86.8235,136.183 88.5,135.5C 88.9321,136.71 89.5987,137.71 90.5,138.5C 93.538,133.624 97.538,129.457 102.5,126C 106.31,125.413 109.977,125.913 113.5,127.5C 116.676,131.193 119.343,135.193 121.5,139.5C 121.92,141.674 121.92,143.674 121.5,145.5C 118.888,147.177 116.222,147.51 113.5,146.5C 109.494,144.931 105.827,145.598 102.5,148.5C 93.3407,152.655 86.0073,158.989 80.5,167.5C 79.8964,164.782 78.563,162.449 76.5,160.5C 75.3591,158.757 73.6924,157.757 71.5,157.5C 66.8853,158.474 62.8853,160.474 59.5,163.5C 54.7524,165.882 50.7524,169.216 47.5,173.5C 45.9974,170.511 43.9974,167.844 41.5,165.5C 41.0825,164.778 40.4158,164.278 39.5,164C 35.8333,163.333 32.1667,163.333 28.5,164C 25.9746,164.424 23.9746,165.59 22.5,167.5C 16.8333,169.833 12.8333,173.833 10.5,179.5C 7.61472,182.767 5.61472,186.6 4.5,191C 5.68685,193.59 7.52018,194.09 10,192.5C 12.2548,182.815 17.7548,175.649 26.5,171C 35.201,168.67 40.201,171.837 41.5,180.5C 40.5,180.833 39.8333,181.5 39.5,182.5C 36.1983,185.974 33.0316,189.641 30,193.5C 28.2226,196.059 26.7226,198.726 25.5,201.5C 18.0218,210.12 14.1884,220.12 14,231.5C 15.1332,233.211 16.6332,233.711 18.5,233C 35.4507,219.279 45.2841,201.446 48,179.5C 52.1667,176 56.3333,172.5 60.5,169C 64.1327,166.528 67.966,166.028 72,167.5C 72.5779,171.955 72.0779,176.288 70.5,180.5C 69.0937,180.973 68.427,181.973 68.5,183.5C 67.0937,183.973 66.427,184.973 66.5,186.5C 65.0937,186.973 64.427,187.973 64.5,189.5C 63.0937,189.973 62.427,190.973 62.5,192.5C 61.0937,192.973 60.427,193.973 60.5,195.5C 56.3774,200.641 53.0441,206.308 50.5,212.5C 47.4598,215.914 45.4598,219.914 44.5,224.5C 42.7615,226.119 42.2615,228.119 43,230.5C 44.4902,231.728 45.9902,231.728 47.5,230.5C 47.9382,230.435 48.2716,230.601 48.5,231C 46.7923,232.51 45.1256,234.01 43.5,235.5C 43.7093,236.086 44.0426,236.586 44.5,237C 36.8186,242.223 34.9853,249.057 39,257.5C 39.8159,258.823 40.9826,259.489 42.5,259.5C 46.3845,263.226 51.0511,264.393 56.5,263C 77.6266,258.302 98.6266,253.135 119.5,247.5C 120.376,247.369 121.043,247.702 121.5,248.5C 121.11,253.507 119.443,258.007 116.5,262C 115.552,262.483 114.552,262.649 113.5,262.5C 105.406,256.111 99.2398,257.778 95,267.5C 92.4973,275.824 94.664,282.49 101.5,287.5C 106.609,293.225 112.609,294.058 119.5,290C 127.231,283.365 132.564,275.199 135.5,265.5C 136.097,265.735 136.43,266.235 136.5,267C 135.434,270.094 134.768,273.26 134.5,276.5C 131.076,285.18 128.409,294.18 126.5,303.5C 124.391,308.236 122.724,313.236 121.5,318.5C 122.434,321.102 124.101,323.102 126.5,324.5C 130.801,325.773 135.135,325.773 139.5,324.5C 140.442,328.09 142.442,330.757 145.5,332.5C 148.161,336.351 149.161,340.684 148.5,345.5C 152.351,346.809 156.351,346.809 160.5,345.5C 158.743,342.766 158.409,339.933 159.5,337C 159.361,335.699 158.695,334.866 157.5,334.5C 156.833,333.833 156.167,333.167 155.5,332.5C 156.889,329.393 158.555,326.393 160.5,323.5C 166.665,327.913 172.165,327.246 177,321.5C 177.602,318.779 177.435,316.113 176.5,313.5C 172.606,296.834 167.94,280.501 162.5,264.5C 161.594,257.493 160.594,250.493 159.5,243.5C 159.747,242.287 160.414,241.62 161.5,241.5C 161.189,246.766 161.855,251.766 163.5,256.5C 164.065,260.537 165.399,264.203 167.5,267.5C 170.39,276.613 175.723,283.946 183.5,289.5C 198.695,293.666 206.029,287.666 205.5,271.5C 204.59,268.008 202.924,265.008 200.5,262.5C 200.5,261.167 199.833,260.5 198.5,260.5C 194.833,256.5 191.167,256.5 187.5,260.5C 183.176,262.495 180.842,261.162 180.5,256.5C 179.8,252.202 179.467,247.869 179.5,243.5C 191.956,243.932 204.29,245.432 216.5,248C 229.734,251.634 242.9,255.467 256,259.5C 267.731,257.703 272.231,251.037 269.5,239.5C 267.571,235.079 264.737,231.412 261,228.5C 256.383,231.096 256.383,233.762 261,236.5C 261.667,239.833 261.667,243.167 261,246.5C 259.014,248.742 256.514,249.742 253.5,249.5C 250.418,249.121 247.418,248.454 244.5,247.5C 237.636,243.991 230.302,241.658 222.5,240.5C 222.5,239.833 222.167,239.5 221.5,239.5C 217.21,238.575 212.876,237.909 208.5,237.5C 208.158,236.662 207.492,236.328 206.5,236.5C 181.241,232.404 155.907,231.737 130.5,234.5C 130.5,234.167 130.5,233.833 130.5,233.5C 149.584,226.639 168.918,220.472 188.5,215C 215.722,211.197 243.055,208.697 270.5,207.5C 270.5,206.167 270.5,204.833 270.5,203.5C 264.974,203.179 259.64,203.512 254.5,204.5C 239.46,204.368 224.46,205.035 209.5,206.5C 187.289,208.719 165.956,214.053 145.5,222.5C 144.209,222.263 143.209,222.596 142.5,223.5C 134.275,225.907 125.942,227.907 117.5,229.5C 116.209,229.263 115.209,229.596 114.5,230.5C 107.304,231.355 100.637,230.021 94.5,226.5C 91.9376,218.191 92.1043,209.858 95,201.5C 100.279,188.276 106.612,175.609 114,163.5C 115.145,160.568 115.978,157.568 116.5,154.5C 146.769,149.599 177.102,149.266 207.5,153.5C 214.615,153.852 215.949,151.519 211.5,146.5C 209.005,144.286 206.005,143.119 202.5,143C 196.183,142.235 189.849,141.735 183.5,141.5C 185.434,136.052 188.767,131.552 193.5,128C 196.261,127.278 198.927,127.445 201.5,128.5C 202.003,131.846 202.67,135.179 203.5,138.5C 204.183,138.137 204.85,137.804 205.5,137.5C 205.369,138.376 205.702,139.043 206.5,139.5C 210.293,138.12 214.126,136.787 218,135.5C 221.067,129.443 221.234,123.443 218.5,117.5C 217.831,113.144 215.498,110.144 211.5,108.5C 213.265,107.539 215.265,107.205 217.5,107.5C 219.372,110.582 221.705,113.249 224.5,115.5C 226.167,116.167 227.833,116.833 229.5,117.5C 229.468,119.619 230.468,120.952 232.5,121.5C 234.339,120.492 235.672,118.992 236.5,117C 239.968,116.77 242.634,115.27 244.5,112.5C 246.592,115.681 248.925,118.681 251.5,121.5C 252.458,121.953 253.292,122.619 254,123.5C 256.214,115.29 256.881,106.956 256,98.5C 255.626,96.5087 254.793,94.842 253.5,93.5C 253.539,90.911 252.539,88.911 250.5,87.5C 247.172,81.0297 241.838,76.863 234.5,75C 224.03,72.442 213.864,73.2753 204,77.5C 203.235,77.4301 202.735,77.0967 202.5,76.5C 207.323,73.5872 212.323,70.9205 217.5,68.5C 217.058,67.2613 216.391,66.2613 215.5,65.5C 210.541,52.3573 201.208,47.024 187.5,49.5C 186.5,49.5 185.5,49.5 184.5,49.5C 184.133,43.4536 182.133,38.1203 178.5,33.5C 175.97,26.9674 171.636,21.9674 165.5,18.5C 162.5,14.8333 159.167,11.5 155.5,8.5C 155.396,6.29719 154.73,4.29719 153.5,2.5C 152.89,1.60895 152.557,0.608953 152.5,-0.5C 201.833,-0.5 251.167,-0.5 300.5,-0.5C 300.5,115.833 300.5,232.167 300.5,348.5C 200.167,348.5 99.8333,348.5 -0.5,348.5C -0.5,232.167 -0.5,115.833 -0.5,-0.5 Z"/></g>
<g><path style="opacity:1" fill="#f0f0f1" d="M 150.5,-0.5 C 151.167,-0.5 151.833,-0.5 152.5,-0.5C 152.557,0.608953 152.89,1.60895 153.5,2.5C 152.892,4.68412 153.559,6.68412 155.5,8.5C 157.833,12.8333 161.167,16.1667 165.5,18.5C 171.636,21.9674 175.97,26.9674 178.5,33.5C 180.564,38.693 182.231,44.0263 183.5,49.5C 185.665,50.751 186.999,50.751 187.5,49.5C 201.208,47.024 210.541,52.3573 215.5,65.5C 192.997,75.3966 177.497,92.0633 169,115.5C 165.231,124.112 163.398,133.112 163.5,142.5C 166.041,142.851 167.708,142.518 168.5,141.5C 168.263,140.209 168.596,139.209 169.5,138.5C 171.702,129.067 174.369,119.067 177.5,108.5C 177.328,107.508 177.662,106.842 178.5,106.5C 183.051,96.1036 190.051,87.6036 199.5,81C 198.906,80.5357 198.239,80.369 197.5,80.5C 198.945,78.9373 200.611,77.604 202.5,76.5C 202.735,77.0967 203.235,77.4301 204,77.5C 213.864,73.2753 224.03,72.442 234.5,75C 241.838,76.863 247.172,81.0297 250.5,87.5C 251.512,90.2572 252.512,92.9239 253.5,95.5C 255.106,104.351 254.439,113.018 251.5,121.5C 248.925,118.681 246.592,115.681 244.5,112.5C 245.78,110.894 245.28,109.894 243,109.5C 241.012,112.541 238.178,114.207 234.5,114.5C 233.5,115.833 232.5,117.167 231.5,118.5C 232.127,119.417 232.461,120.417 232.5,121.5C 230.468,120.952 229.468,119.619 229.5,117.5C 229.586,116.504 229.252,115.671 228.5,115C 226.934,114.235 225.601,114.402 224.5,115.5C 221.705,113.249 219.372,110.582 217.5,107.5C 214.095,103.729 210.428,103.562 206.5,107C 208.025,108.009 209.692,108.509 211.5,108.5C 215.498,110.144 217.831,113.144 218.5,117.5C 218.809,122.267 218.309,126.934 217,131.5C 216.167,132.333 215.333,133.167 214.5,134C 211.031,134.535 208.031,135.702 205.5,137.5C 204.85,137.804 204.183,138.137 203.5,138.5C 202.67,135.179 202.003,131.846 201.5,128.5C 198.813,124.265 195.146,123.432 190.5,126C 185.862,130.472 182.196,135.639 179.5,141.5C 180.958,142.782 182.292,142.782 183.5,141.5C 189.849,141.735 196.183,142.235 202.5,143C 206.005,143.119 209.005,144.286 211.5,146.5C 211.5,147.833 211.5,149.167 211.5,150.5C 195.177,149.45 178.844,148.45 162.5,147.5C 146.697,147.633 131.031,149.133 115.5,152C 111.26,163.981 105.593,175.148 98.5,185.5C 100.167,181.5 101.833,177.5 103.5,173.5C 103.328,172.508 103.662,171.842 104.5,171.5C 108.011,167.309 110.345,162.475 111.5,157C 111.392,155.319 110.725,154.152 109.5,153.5C 109.804,152.85 110.137,152.183 110.5,151.5C 106.355,150.185 102.355,150.518 98.5,152.5C 99.8333,151.167 101.167,149.833 102.5,148.5C 105.827,145.598 109.494,144.931 113.5,146.5C 113.962,147.88 114.962,148.547 116.5,148.5C 123.255,147.981 124.922,144.981 121.5,139.5C 119.343,135.193 116.676,131.193 113.5,127.5C 104.373,120.927 97.0392,122.593 91.5,132.5C 89.2459,131.585 87.2459,130.252 85.5,128.5C 84.1092,123.818 83.1092,119.151 82.5,114.5C 82.1667,114.5 81.8333,114.5 81.5,114.5C 83.9155,110.578 86.9155,107.078 90.5,104C 85.1614,103.81 81.4947,106.31 79.5,111.5C 76.8929,112.318 74.2263,112.818 71.5,113C 70.6195,113.708 69.9528,114.542 69.5,115.5C 67.1402,114.135 65.4735,112.135 64.5,109.5C 61.9548,105.403 58.7881,104.736 55,107.5C 54.4361,112.194 54.6027,116.86 55.5,121.5C 50.7602,118.348 47.7602,114.015 46.5,108.5C 45.6769,99.4562 47.0103,90.7895 50.5,82.5C 52.5701,76.7645 56.5701,73.0979 62.5,71.5C 76.1772,67.835 89.1772,69.5017 101.5,76.5C 106.012,78.4975 109.845,81.4975 113,85.5C 117.525,90.5528 121.025,96.2195 123.5,102.5C 124.326,105.485 125.659,108.151 127.5,110.5C 131.27,121.468 134.603,132.468 137.5,143.5C 138.787,142.129 139.453,140.295 139.5,138C 139.579,134.549 138.913,131.382 137.5,128.5C 136.833,128.5 136.5,128.167 136.5,127.5C 136.94,120.453 135.273,113.787 131.5,107.5C 125.114,94.1175 116.447,82.4508 105.5,72.5C 105.027,71.0937 104.027,70.427 102.5,70.5C 100.178,68.336 97.5113,66.6693 94.5,65.5C 93.325,65.719 92.325,65.3857 91.5,64.5C 93.5802,57.7528 97.9136,53.4195 104.5,51.5C 110.477,50.8587 116.477,50.3587 122.5,50C 123.38,48.6439 123.714,47.1439 123.5,45.5C 124.176,41.8133 125.676,38.4799 128,35.5C 133.709,29.4596 139.043,23.1263 144,16.5C 146.864,11.0713 149.031,5.40458 150.5,-0.5 Z"/></g>
<g><path style="opacity:1" fill="#d6d5d5" d="M 153.5,2.5 C 154.73,4.29719 155.396,6.29719 155.5,8.5C 153.559,6.68412 152.892,4.68412 153.5,2.5 Z"/></g>
<g><path style="opacity:1" fill="#e1e1e1" d="M 155.5,8.5 C 159.167,11.5 162.5,14.8333 165.5,18.5C 161.167,16.1667 157.833,12.8333 155.5,8.5 Z"/></g>
<g><path style="opacity:1" fill="#c2c1c1" d="M 153.5,17.5 C 146.83,27.4935 139.663,37.1602 132,46.5C 129.33,51.8367 127.83,57.5033 127.5,63.5C 121.194,59.437 114.527,58.6037 107.5,61C 106.177,61.8159 105.511,62.9826 105.5,64.5C 103.297,63.9484 102.464,62.6151 103,60.5C 110.83,55.069 118.497,55.4023 126,61.5C 125.898,55.1554 127.232,49.1554 130,43.5C 137.745,34.2561 144.912,24.5894 151.5,14.5C 154.28,13.694 154.947,14.694 153.5,17.5 Z"/></g>
<g><path style="opacity:1" fill="#fefefe" d="M 153.5,17.5 C 162.209,23.5449 169.209,31.2115 174.5,40.5C 175.804,47.1017 176.804,53.7683 177.5,60.5C 178.107,60.3764 178.44,60.0431 178.5,59.5C 179.268,60.2625 179.768,61.2625 180,62.5C 187.233,55.9013 195.067,54.9013 203.5,59.5C 203.414,60.4959 203.748,61.3292 204.5,62C 186.505,73.1604 173.838,88.6604 166.5,108.5C 161.982,117.899 159.315,127.899 158.5,138.5C 157.596,139.209 157.263,140.209 157.5,141.5C 153.833,141.5 150.167,141.5 146.5,141.5C 144.651,127.42 140.651,114.086 134.5,101.5C 133.54,96.9136 131.54,92.9136 128.5,89.5C 123.27,78.9359 115.603,70.6026 105.5,64.5C 105.511,62.9826 106.177,61.8159 107.5,61C 114.527,58.6037 121.194,59.437 127.5,63.5C 127.83,57.5033 129.33,51.8367 132,46.5C 139.663,37.1602 146.83,27.4935 153.5,17.5 Z"/></g>
<g><path style="opacity:1" fill="#d0cfd0" d="M 178.5,33.5 C 182.133,38.1203 184.133,43.4536 184.5,49.5C 185.5,49.5 186.5,49.5 187.5,49.5C 186.999,50.751 185.665,50.751 183.5,49.5C 182.231,44.0263 180.564,38.693 178.5,33.5 Z"/></g>
<g><path style="opacity:1" fill="#dddcdc" d="M 123.5,45.5 C 123.714,47.1439 123.38,48.6439 122.5,50C 116.477,50.3587 110.477,50.8587 104.5,51.5C 105.263,50.7321 106.263,50.2321 107.5,50C 112.167,49.6667 116.833,49.3333 121.5,49C 122.085,47.6976 122.751,46.531 123.5,45.5 Z"/></g>
<g><path style="opacity:1" fill="#dcdcdc" d="M 174.5,40.5 C 175.927,42.1484 176.76,44.1484 177,46.5C 177.175,51.0195 177.675,55.3528 178.5,59.5C 178.44,60.0431 178.107,60.3764 177.5,60.5C 176.804,53.7683 175.804,47.1017 174.5,40.5 Z"/></g>
<g><path style="opacity:1" fill="#c3c1c2" d="M 203.5,59.5 C 195.067,54.9013 187.233,55.9013 180,62.5C 179.768,61.2625 179.268,60.2625 178.5,59.5C 183.949,54.8804 190.283,53.3804 197.5,55C 200.106,55.7918 202.106,57.2918 203.5,59.5 Z"/></g>
<g><path style="opacity:1" fill="#cdcccc" d="M 94.5,65.5 C 97.5113,66.6693 100.178,68.336 102.5,70.5C 99.0846,69.8046 96.4179,68.1379 94.5,65.5 Z"/></g>
<g><path style="opacity:1" fill="#c2c0c1" d="M 215.5,65.5 C 216.391,66.2613 217.058,67.2613 217.5,68.5C 212.323,70.9205 207.323,73.5872 202.5,76.5C 200.611,77.604 198.945,78.9373 197.5,80.5C 188.482,86.533 181.815,94.533 177.5,104.5C 171.098,116.039 167.098,128.372 165.5,141.5C 166.5,141.5 167.5,141.5 168.5,141.5C 167.708,142.518 166.041,142.851 163.5,142.5C 163.398,133.112 165.231,124.112 169,115.5C 177.497,92.0633 192.997,75.3966 215.5,65.5 Z"/></g>
<g><path style="opacity:1" fill="#e0e0e0" d="M 101.5,76.5 C 89.1772,69.5017 76.1772,67.835 62.5,71.5C 63.842,70.207 65.5087,69.3736 67.5,69C 80.0209,66.8006 91.3542,69.3006 101.5,76.5 Z"/></g>
<g><path style="opacity:1" fill="#d2d1d2" d="M 102.5,70.5 C 104.027,70.427 105.027,71.0937 105.5,72.5C 103.973,72.573 102.973,71.9063 102.5,70.5 Z"/></g>
<g><path style="opacity:1" fill="#c2c1c1" d="M 98.5,83.5 C 93.2829,81.707 87.9496,80.207 82.5,79C 67.671,76.6627 58.671,82.8294 55.5,97.5C 54.6851,98.4293 53.8518,99.4293 53,100.5C 53.9413,81.5621 63.7747,73.7288 82.5,77C 88.5829,77.7393 93.9163,79.906 98.5,83.5 Z"/></g>
<g><path style="opacity:1" fill="#fefefe" d="M 98.5,83.5 C 98.9731,84.9063 99.9731,85.573 101.5,85.5C 107.919,90.5823 113.252,96.5823 117.5,103.5C 118.659,107.151 120.326,110.485 122.5,113.5C 124.37,119.777 126.037,126.11 127.5,132.5C 128.573,134.653 128.573,136.653 127.5,138.5C 126.59,135.008 124.924,132.008 122.5,129.5C 117.345,119.262 109.011,115.429 97.5,118C 96.3128,119.019 95.3128,120.186 94.5,121.5C 93.0416,122.782 91.7082,122.782 90.5,121.5C 90.8146,117.731 91.8146,114.231 93.5,111C 96.8168,110.502 100.15,110.335 103.5,110.5C 103.567,109.041 103.234,107.708 102.5,106.5C 101.557,103.891 99.8903,101.891 97.5,100.5C 95.4924,98.0728 92.8257,97.0728 89.5,97.5C 85.5764,96.9651 82.5764,98.2985 80.5,101.5C 77.6253,104.755 73.9586,106.422 69.5,106.5C 68.4086,103.572 66.4086,101.406 63.5,100C 60.7493,99.0572 58.0826,98.2239 55.5,97.5C 58.671,82.8294 67.671,76.6627 82.5,79C 87.9496,80.207 93.2829,81.707 98.5,83.5 Z"/></g>
<g><path style="opacity:1" fill="#cdcbcc" d="M 98.5,83.5 C 100.027,83.427 101.027,84.0937 101.5,85.5C 99.9731,85.573 98.9731,84.9063 98.5,83.5 Z"/></g>
<g><path style="opacity:1" fill="#c3c1c2" d="M 239.5,86.5 C 221.438,79.5769 206.271,83.5769 194,98.5C 187.624,106.919 183.124,116.253 180.5,126.5C 178.699,128.587 178.365,130.921 179.5,133.5C 177.644,136.409 175.977,139.409 174.5,142.5C 176.003,121.853 184.003,104.019 198.5,89C 210.483,79.7175 223.483,78.0508 237.5,84C 238.381,84.7083 239.047,85.5416 239.5,86.5 Z"/></g>
<g><path style="opacity:1" fill="#fefefe" d="M 239.5,86.5 C 242.246,89.2382 244.58,92.2382 246.5,95.5C 247.058,98.3443 247.725,101.178 248.5,104C 248.472,105.07 248.139,105.903 247.5,106.5C 244.8,105.27 242.3,103.603 240,101.5C 238.731,102.905 238.231,104.571 238.5,106.5C 235.208,106.12 232.875,107.453 231.5,110.5C 229.78,109.066 227.78,108.233 225.5,108C 217.245,96.4377 208.078,95.6044 198,105.5C 197.209,106.745 196.709,108.078 196.5,109.5C 195.596,110.209 195.263,111.209 195.5,112.5C 200.706,114.023 206.04,115.023 211.5,115.5C 211.328,116.492 211.662,117.158 212.5,117.5C 212.878,119.646 213.212,121.813 213.5,124C 213.693,126.008 213.026,127.508 211.5,128.5C 211.167,128.5 210.833,128.5 210.5,128.5C 209.504,128.586 208.671,128.252 208,127.5C 206.277,121.213 202.111,118.213 195.5,118.5C 192.64,118.555 190.307,119.555 188.5,121.5C 185.236,122.927 182.736,125.261 181,128.5C 180.536,127.906 180.369,127.239 180.5,126.5C 183.124,116.253 187.624,106.919 194,98.5C 206.271,83.5769 221.438,79.5769 239.5,86.5 Z"/></g>
<g><path style="opacity:1" fill="#e6e6e6" d="M 197.5,80.5 C 198.239,80.369 198.906,80.5357 199.5,81C 190.051,87.6036 183.051,96.1036 178.5,106.5C 178.672,105.508 178.338,104.842 177.5,104.5C 181.815,94.533 188.482,86.533 197.5,80.5 Z"/></g>
<g><path style="opacity:1" fill="#dad9d9" d="M 250.5,87.5 C 252.539,88.911 253.539,90.911 253.5,93.5C 253.5,94.1667 253.5,94.8333 253.5,95.5C 252.512,92.9239 251.512,90.2572 250.5,87.5 Z"/></g>
<g><path style="opacity:1" fill="#d9d8d8" d="M 128.5,89.5 C 131.54,92.9136 133.54,96.9136 134.5,101.5C 131.992,97.8178 129.992,93.8178 128.5,89.5 Z"/></g>
<g><path style="opacity:1" fill="#dfdfdf" d="M 97.5,100.5 C 91.6012,97.6147 85.9345,97.9481 80.5,101.5C 82.5764,98.2985 85.5764,96.9651 89.5,97.5C 92.8257,97.0728 95.4924,98.0728 97.5,100.5 Z"/></g>
<g><path style="opacity:1" fill="#e0e0e0" d="M 246.5,95.5 C 249.29,99.7851 250.29,104.452 249.5,109.5C 248.081,108.995 247.415,107.995 247.5,106.5C 248.139,105.903 248.472,105.07 248.5,104C 247.725,101.178 247.058,98.3443 246.5,95.5 Z"/></g>
<g><path style="opacity:1" fill="#e5e4e5" d="M 50.5,82.5 C 47.0103,90.7895 45.6769,99.4562 46.5,108.5C 44.7015,104.781 44.2015,100.781 45,96.5C 45.5894,91.2113 47.4227,86.5446 50.5,82.5 Z"/></g>
<g><path style="opacity:1" fill="#dfdfdf" d="M 80.5,101.5 C 78.8964,105.698 75.7298,107.698 71,107.5C 70.2352,107.43 69.7352,107.097 69.5,106.5C 73.9586,106.422 77.6253,104.755 80.5,101.5 Z"/></g>
<g><path style="opacity:1" fill="#d9d8d9" d="M 123.5,102.5 C 125.873,104.579 127.206,107.246 127.5,110.5C 125.659,108.151 124.326,105.485 123.5,102.5 Z"/></g>
<g><path style="opacity:1" fill="#c3c1c2" d="M 217.5,107.5 C 215.265,107.205 213.265,107.539 211.5,108.5C 209.692,108.509 208.025,108.009 206.5,107C 210.428,103.562 214.095,103.729 217.5,107.5 Z"/></g>
<g><path style="opacity:1" fill="#c1bfc0" d="M 81.5,114.5 C 79.1432,114.337 76.8098,114.503 74.5,115C 72.5994,117.392 70.9327,117.558 69.5,115.5C 69.9528,114.542 70.6195,113.708 71.5,113C 74.2263,112.818 76.8929,112.318 79.5,111.5C 81.4947,106.31 85.1614,103.81 90.5,104C 86.9155,107.078 83.9155,110.578 81.5,114.5 Z"/></g>
<g><path style="opacity:1" fill="#c4c2c3" d="M 64.5,109.5 C 61.9592,108.351 59.4592,108.351 57,109.5C 56.2713,113.377 56.438,117.211 57.5,121C 57.3166,122.684 56.6499,122.85 55.5,121.5C 54.6027,116.86 54.4361,112.194 55,107.5C 58.7881,104.736 61.9548,105.403 64.5,109.5 Z"/></g>
<g><path style="opacity:1" fill="#c4c3c3" d="M 102.5,106.5 C 103.234,107.708 103.567,109.041 103.5,110.5C 100.15,110.335 96.8168,110.502 93.5,111C 91.8146,114.231 90.8146,117.731 90.5,121.5C 89.0532,124.126 88.0532,123.793 87.5,120.5C 89.0607,117.068 89.894,113.401 90,109.5C 94.0262,107.959 98.1929,106.959 102.5,106.5 Z"/></g>
<g><path style="opacity:1" fill="#e0dfe0" d="M 131.5,107.5 C 135.273,113.787 136.94,120.453 136.5,127.5C 135.243,120.729 133.576,114.063 131.5,107.5 Z"/></g>
<g><path style="opacity:1" fill="#c2c0c1" d="M 244.5,112.5 C 242.634,115.27 239.968,116.77 236.5,117C 235.672,118.992 234.339,120.492 232.5,121.5C 232.461,120.417 232.127,119.417 231.5,118.5C 232.5,117.167 233.5,115.833 234.5,114.5C 238.178,114.207 241.012,112.541 243,109.5C 245.28,109.894 245.78,110.894 244.5,112.5 Z"/></g>
<g><path style="opacity:1" fill="#e1e0e1" d="M 117.5,103.5 C 120.207,106.247 121.873,109.58 122.5,113.5C 120.326,110.485 118.659,107.151 117.5,103.5 Z"/></g>
<g><path style="opacity:1" fill="#e0e0e0" d="M 166.5,108.5 C 163.369,119.067 160.702,129.067 158.5,138.5C 159.315,127.899 161.982,117.899 166.5,108.5 Z"/></g>
<g><path style="opacity:1" fill="#e0e0e0" d="M 177.5,108.5 C 174.369,119.067 171.702,129.067 169.5,138.5C 170.315,127.899 172.982,117.899 177.5,108.5 Z"/></g>
<g><path style="opacity:1" fill="#cdcccc" d="M 127.5,110.5 C 132.98,120.397 136.313,131.064 137.5,142.5C 137.5,142.833 137.5,143.167 137.5,143.5C 134.603,132.468 131.27,121.468 127.5,110.5 Z"/></g>
<g><path style="opacity:1" fill="#cccbcb" d="M 196.5,109.5 C 200.445,111.2 204.778,112.367 209.5,113C 210.381,113.708 211.047,114.542 211.5,115.5C 206.04,115.023 200.706,114.023 195.5,112.5C 195.263,111.209 195.596,110.209 196.5,109.5 Z"/></g>
<g><path style="opacity:1" fill="#c4c2c2" d="M 224.5,115.5 C 225.601,114.402 226.934,114.235 228.5,115C 229.252,115.671 229.586,116.504 229.5,117.5C 227.833,116.833 226.167,116.167 224.5,115.5 Z"/></g>
<g><path style="opacity:1" fill="#dcdcdc" d="M 82.5,114.5 C 83.1092,119.151 84.1092,123.818 85.5,128.5C 84.2101,127.942 83.3768,126.942 83,125.5C 82.5014,121.848 82.3347,118.182 82.5,114.5 Z"/></g>
<g><path style="opacity:1" fill="#e0dfe0" d="M 122.5,113.5 C 125.263,118.782 127.263,124.449 128.5,130.5C 128.457,131.416 128.124,132.083 127.5,132.5C 126.037,126.11 124.37,119.777 122.5,113.5 Z"/></g>
<g><path style="opacity:1" fill="#fafafa" d="M 177.5,104.5 C 178.338,104.842 178.672,105.508 178.5,106.5C 177.662,106.842 177.328,107.508 177.5,108.5C 172.982,117.899 170.315,127.899 169.5,138.5C 168.596,139.209 168.263,140.209 168.5,141.5C 167.5,141.5 166.5,141.5 165.5,141.5C 167.098,128.372 171.098,116.039 177.5,104.5 Z"/></g>
<g><path style="opacity:1" fill="#e0e0e0" d="M 210.5,128.5 C 209.749,129.573 208.749,129.74 207.5,129C 203.722,120.296 197.389,117.796 188.5,121.5C 190.307,119.555 192.64,118.555 195.5,118.5C 202.111,118.213 206.277,121.213 208,127.5C 208.671,128.252 209.504,128.586 210.5,128.5 Z"/></g>
<g><path style="opacity:1" fill="#c5c3c4" d="M 253.5,93.5 C 254.793,94.842 255.626,96.5087 256,98.5C 256.881,106.956 256.214,115.29 254,123.5C 253.292,122.619 252.458,121.953 251.5,121.5C 254.439,113.018 255.106,104.351 253.5,95.5C 253.5,94.8333 253.5,94.1667 253.5,93.5 Z"/></g>
<g><path style="opacity:1" fill="#dddddd" d="M 212.5,117.5 C 213.997,119.29 214.664,121.456 214.5,124C 214.333,125.5 214.167,127 214,128.5C 213.023,129.774 212.189,129.774 211.5,128.5C 213.026,127.508 213.693,126.008 213.5,124C 213.212,121.813 212.878,119.646 212.5,117.5 Z"/></g>
<g><path style="opacity:1" fill="#c1bfc0" d="M 113.5,127.5 C 109.977,125.913 106.31,125.413 102.5,126C 97.538,129.457 93.538,133.624 90.5,138.5C 91.3414,136.621 91.6747,134.621 91.5,132.5C 97.0392,122.593 104.373,120.927 113.5,127.5 Z"/></g>
<g><path style="opacity:1" fill="#cccbcb" d="M 134.5,101.5 C 140.651,114.086 144.651,127.42 146.5,141.5C 146.44,142.043 146.107,142.376 145.5,142.5C 142.607,128.592 138.94,114.925 134.5,101.5 Z"/></g>
<g><path style="opacity:1" fill="#c4c2c2" d="M 201.5,128.5 C 198.927,127.445 196.261,127.278 193.5,128C 188.767,131.552 185.434,136.052 183.5,141.5C 182.292,142.782 180.958,142.782 179.5,141.5C 182.196,135.639 185.862,130.472 190.5,126C 195.146,123.432 198.813,124.265 201.5,128.5 Z"/></g>
<g><path style="opacity:1" fill="#c2c1c1" d="M 218.5,117.5 C 221.234,123.443 221.067,129.443 218,135.5C 214.126,136.787 210.293,138.12 206.5,139.5C 205.702,139.043 205.369,138.376 205.5,137.5C 208.031,135.702 211.031,134.535 214.5,134C 215.333,133.167 216.167,132.333 217,131.5C 218.309,126.934 218.809,122.267 218.5,117.5 Z"/></g>
<g><path style="opacity:1" fill="#deddde" d="M 58.5,132.5 C 58.8995,135.761 57.7329,136.428 55,134.5C 53.5657,134.862 52.3991,135.528 51.5,136.5C 50.8333,136.167 50.1667,135.833 49.5,135.5C 49.5,134.833 49.5,134.167 49.5,133.5C 50.1174,133.611 50.6174,133.944 51,134.5C 53.2276,132.887 55.7276,132.22 58.5,132.5 Z"/></g>
<g><path style="opacity:1" fill="#dddddd" d="M 85.5,128.5 C 87.2459,130.252 89.2459,131.585 91.5,132.5C 91.6747,134.621 91.3414,136.621 90.5,138.5C 89.5987,137.71 88.9321,136.71 88.5,135.5C 89.7383,135.19 89.7383,134.69 88.5,134C 87.552,133.517 86.552,133.351 85.5,133.5C 85.9175,132.778 86.5842,132.278 87.5,132C 86.1772,131.184 85.5106,130.017 85.5,128.5 Z"/></g>
<g><path style="opacity:1" fill="#d7d6d7" d="M 42.5,133.5 C 41.1667,133.5 40.5,134.167 40.5,135.5C 39.788,134.261 38.788,133.761 37.5,134C 39.0015,137.005 40.0015,140.171 40.5,143.5C 38.9924,141.015 37.659,138.348 36.5,135.5C 35.1135,139.437 33.7802,139.437 32.5,135.5C 31.1155,134.199 29.6155,134.199 28,135.5C 27.1849,140.352 27.3516,145.019 28.5,149.5C 31.0787,149.135 33.412,149.135 35.5,149.5C 33.2677,150.869 30.9344,151.869 28.5,152.5C 26.7376,151.738 25.7376,150.404 25.5,148.5C 26.8333,144.5 26.8333,140.5 25.5,136.5C 26.2899,135.206 27.2899,134.039 28.5,133C 33.3522,132.185 38.0189,132.352 42.5,133.5 Z"/></g>
<g><path style="opacity:1" fill="#c4c3c3" d="M 49.5,133.5 C 49.5,134.167 49.5,134.833 49.5,135.5C 47.4163,138.053 46.083,141.053 45.5,144.5C 44.8333,146.5 44.1667,148.5 43.5,150.5C 43.577,146.785 43.2436,143.119 42.5,139.5C 45.3455,139.191 46.8455,137.525 47,134.5C 47.6708,133.748 48.5041,133.414 49.5,133.5 Z"/></g>
<g><path style="opacity:1" fill="#f1f1f2" d="M 75.5,133.5 C 75.5,137.167 75.5,140.833 75.5,144.5C 75.5,144.833 75.5,145.167 75.5,145.5C 75.5,147.167 75.5,148.833 75.5,150.5C 74.1858,148.085 73.5191,145.252 73.5,142C 73.5191,138.748 74.1858,135.915 75.5,133.5 Z"/></g>
<g><path style="opacity:1" fill="#c7c5c6" d="M 85.5,133.5 C 86.552,133.351 87.552,133.517 88.5,134C 89.7383,134.69 89.7383,135.19 88.5,135.5C 86.8235,136.183 86.1568,137.517 86.5,139.5C 84.195,137.955 83.8617,135.955 85.5,133.5 Z"/></g>
<g><path style="opacity:1" fill="#e1e1e1" d="M 68.5,133.5 C 67.5,133.5 66.5,133.5 65.5,133.5C 65.1666,139.599 65.5,144.932 66.5,149.5C 67.391,150.11 68.391,150.443 69.5,150.5C 66.8333,151.167 64.1667,151.833 61.5,152.5C 60.8333,152.5 60.1667,152.5 59.5,152.5C 59.8333,151.833 60.1667,151.167 60.5,150.5C 61.1174,150.389 61.6174,150.056 62,149.5C 62.6873,143.796 62.5207,138.13 61.5,132.5C 64.0593,132.198 66.3926,132.532 68.5,133.5 Z"/></g>
<g><path style="opacity:1" fill="#bebcbd" d="M 68.5,133.5 C 66.7239,138.609 66.0573,143.942 66.5,149.5C 65.5,144.932 65.1666,139.599 65.5,133.5C 66.5,133.5 67.5,133.5 68.5,133.5 Z"/></g>
<g><path style="opacity:1" fill="#dad9d9" d="M 80.5,132.5 C 80.5299,133.497 80.0299,134.164 79,134.5C 77.8615,134.011 76.6948,133.678 75.5,133.5C 74.1858,135.915 73.5191,138.748 73.5,142C 73.5191,145.252 74.1858,148.085 75.5,150.5C 76.9311,150.119 77.7645,149.119 78,147.5C 79.0217,148.354 79.8551,149.354 80.5,150.5C 77.6944,151.168 75.0277,151.834 72.5,152.5C 71.8333,152.5 71.1667,152.5 70.5,152.5C 70.5,151.167 70.5,149.833 70.5,148.5C 71.2216,148.918 71.7216,149.584 72,150.5C 72.1667,149.833 72.3333,149.167 72.5,148.5C 72.7384,143.219 72.405,137.886 71.5,132.5C 74.5,132.5 77.5,132.5 80.5,132.5 Z"/></g>
<g><path style="opacity:1" fill="#c6c4c5" d="M 80.5,132.5 C 82.0481,132.821 82.7148,133.821 82.5,135.5C 82.1667,136.167 81.8333,136.833 81.5,137.5C 80.1667,136.833 78.8333,136.167 77.5,135.5C 76.8333,138.5 76.1667,141.5 75.5,144.5C 75.5,140.833 75.5,137.167 75.5,133.5C 76.6948,133.678 77.8615,134.011 79,134.5C 80.0299,134.164 80.5299,133.497 80.5,132.5 Z"/></g>
<g><path style="opacity:1" fill="#e0dfe0" d="M 49.5,133.5 C 48.5041,133.414 47.6708,133.748 47,134.5C 46.8455,137.525 45.3455,139.191 42.5,139.5C 42.5,139.167 42.5,138.833 42.5,138.5C 43.4972,138.53 44.1639,138.03 44.5,137C 43.8524,135.56 43.5191,134.06 43.5,132.5C 45.7354,132.205 47.7354,132.539 49.5,133.5 Z"/></g>
<g><path style="opacity:1" fill="#d3d2d2" d="M 122.5,129.5 C 124.924,132.008 126.59,135.008 127.5,138.5C 128.089,140.352 128.756,142.185 129.5,144C 128.517,144.591 127.85,144.257 127.5,143C 126.243,138.325 124.577,133.825 122.5,129.5 Z"/></g>
<g><path style="opacity:1" fill="#dddcdc" d="M 137.5,128.5 C 138.913,131.382 139.579,134.549 139.5,138C 139.453,140.295 138.787,142.129 137.5,143.5C 137.5,143.167 137.5,142.833 137.5,142.5C 138.375,138.002 138.375,133.335 137.5,128.5 Z"/></g>
<g><path style="opacity:1" fill="#c5c4c4" d="M 42.5,133.5 C 42.5,135.167 42.5,136.833 42.5,138.5C 42.5,138.833 42.5,139.167 42.5,139.5C 41.3263,138.486 40.6596,137.153 40.5,135.5C 40.5,134.167 41.1667,133.5 42.5,133.5 Z"/></g>
<g><path style="opacity:1" fill="#c9c8c9" d="M 58.5,132.5 C 59.6935,132.97 60.3601,133.97 60.5,135.5C 60.1667,136.5 59.8333,137.5 59.5,138.5C 57.9288,136.585 55.9288,135.585 53.5,135.5C 53.5,140.167 53.5,144.833 53.5,149.5C 52.8333,149.167 52.1667,148.833 51.5,148.5C 51.5,144.5 51.5,140.5 51.5,136.5C 52.3991,135.528 53.5657,134.862 55,134.5C 57.7329,136.428 58.8995,135.761 58.5,132.5 Z"/></g>
<g><path style="opacity:1" fill="#bebdbd" d="M 32.5,135.5 C 31.1779,135.33 30.0113,135.663 29,136.5C 28.501,140.821 28.3343,145.154 28.5,149.5C 27.3516,145.019 27.1849,140.352 28,135.5C 29.6155,134.199 31.1155,134.199 32.5,135.5 Z"/></g>
<g><path style="opacity:1" fill="#eaeaea" d="M 85.5,133.5 C 83.8617,135.955 84.195,137.955 86.5,139.5C 88.9113,140.517 90.578,142.184 91.5,144.5C 91.9465,147.01 91.2798,149.01 89.5,150.5C 88.5084,150.672 87.8417,150.338 87.5,149.5C 88.1667,149.5 88.5,149.167 88.5,148.5C 89.5735,147.749 89.7401,146.749 89,145.5C 86.1833,143.201 84.0167,140.535 82.5,137.5C 82.1667,137.5 81.8333,137.5 81.5,137.5C 81.8333,136.833 82.1667,136.167 82.5,135.5C 83.5,134.833 84.5,134.167 85.5,133.5 Z"/></g>
<g><path style="opacity:1" fill="#ebeaeb" d="M 25.5,136.5 C 26.8333,140.5 26.8333,144.5 25.5,148.5C 22.9206,144.53 22.9206,140.53 25.5,136.5 Z"/></g>
<g><path style="opacity:1" fill="#d3d3d3" d="M 82.5,137.5 C 84.0167,140.535 86.1833,143.201 89,145.5C 89.7401,146.749 89.5735,147.749 88.5,148.5C 87.9148,146.078 86.4148,144.411 84,143.5C 82.872,141.655 82.372,139.655 82.5,137.5 Z"/></g>
<g><path style="opacity:1" fill="#f1f1f2" d="M 40.5,135.5 C 40.6596,137.153 41.3263,138.486 42.5,139.5C 43.2436,143.119 43.577,146.785 43.5,150.5C 41.9174,148.492 40.9174,146.159 40.5,143.5C 40.0015,140.171 39.0015,137.005 37.5,134C 38.788,133.761 39.788,134.261 40.5,135.5 Z"/></g>
<g><path style="opacity:1" fill="#d7d6d6" d="M 77.5,135.5 C 77.3359,138.187 77.5026,140.854 78,143.5C 78.9772,142.226 79.8106,142.226 80.5,143.5C 79.7321,144.263 79.2321,145.263 79,146.5C 77.9887,145.663 76.8221,145.33 75.5,145.5C 75.5,145.167 75.5,144.833 75.5,144.5C 76.1667,141.5 76.8333,138.5 77.5,135.5 Z"/></g>
<g><path style="opacity:1" fill="#d8d6d7" d="M 40.5,143.5 C 40.9174,146.159 41.9174,148.492 43.5,150.5C 44.1667,148.5 44.8333,146.5 45.5,144.5C 45.5,146.5 45.5,148.5 45.5,150.5C 43.7354,151.461 41.7354,151.795 39.5,151.5C 40.2653,148.904 40.5987,146.237 40.5,143.5 Z"/></g>
<g><path style="opacity:1" fill="#c5c4c4" d="M 80.5,143.5 C 81.1011,146.549 81.6011,149.549 82,152.5C 79.0454,152.678 75.8788,152.678 72.5,152.5C 75.0277,151.834 77.6944,151.168 80.5,150.5C 79.8551,149.354 79.0217,148.354 78,147.5C 77.7645,149.119 76.9311,150.119 75.5,150.5C 75.5,148.833 75.5,147.167 75.5,145.5C 76.8221,145.33 77.9887,145.663 79,146.5C 79.2321,145.263 79.7321,144.263 80.5,143.5 Z"/></g>
<g><path style="opacity:1" fill="#dddddd" d="M 121.5,139.5 C 124.922,144.981 123.255,147.981 116.5,148.5C 114.962,148.547 113.962,147.88 113.5,146.5C 116.222,147.51 118.888,147.177 121.5,145.5C 121.92,143.674 121.92,141.674 121.5,139.5 Z"/></g>
<g><path style="opacity:1" fill="#d5d4d4" d="M 87.5,149.5 C 87.8417,150.338 88.5084,150.672 89.5,150.5C 87.4687,150.972 85.8021,151.972 84.5,153.5C 83.5386,151.735 83.2053,149.735 83.5,147.5C 85.1993,147.527 86.5326,148.194 87.5,149.5 Z"/></g>
<g><path style="opacity:1" fill="#d6d5d6" d="M 51.5,148.5 C 52.1667,148.833 52.8333,149.167 53.5,149.5C 56.0787,149.135 58.412,149.135 60.5,149.5C 58.2677,150.869 55.9344,151.869 53.5,152.5C 48.8809,149.366 47.3809,145.032 49,139.5C 49.0572,142.851 49.8906,145.851 51.5,148.5 Z"/></g>
<g><path style="opacity:1" fill="#c1c0c0" d="M 70.5,148.5 C 70.5,149.833 70.5,151.167 70.5,152.5C 67.7484,152.762 64.7484,152.762 61.5,152.5C 64.1667,151.833 66.8333,151.167 69.5,150.5C 67.9689,149.075 68.3023,148.409 70.5,148.5 Z"/></g>
<g><path style="opacity:1" fill="#c0bebe" d="M 35.5,149.5 C 35.5,150.5 35.5,151.5 35.5,152.5C 33.1667,152.5 30.8333,152.5 28.5,152.5C 30.9344,151.869 33.2677,150.869 35.5,149.5 Z"/></g>
<g><path style="opacity:1" fill="#bcbabb" d="M 45.5,150.5 C 46.0431,150.56 46.3764,150.893 46.5,151.5C 44.0268,152.797 41.6934,152.797 39.5,151.5C 41.7354,151.795 43.7354,151.461 45.5,150.5 Z"/></g>
<g><path style="opacity:1" fill="#bfbdbd" d="M 60.5,149.5 C 60.5,149.833 60.5,150.167 60.5,150.5C 60.1667,151.167 59.8333,151.833 59.5,152.5C 57.5,152.5 55.5,152.5 53.5,152.5C 55.9344,151.869 58.2677,150.869 60.5,149.5 Z"/></g>
<g><path style="opacity:1" fill="#c5c4c4" d="M 91.5,144.5 C 94.2354,151.119 91.902,154.119 84.5,153.5C 85.8021,151.972 87.4687,150.972 89.5,150.5C 91.2798,149.01 91.9465,147.01 91.5,144.5 Z"/></g>
<g><path style="opacity:1" fill="#c3c1c2" d="M 211.5,146.5 C 215.949,151.519 214.615,153.852 207.5,153.5C 177.102,149.266 146.769,149.599 116.5,154.5C 115.978,157.568 115.145,160.568 114,163.5C 106.612,175.609 100.279,188.276 95,201.5C 92.1043,209.858 91.9376,218.191 94.5,226.5C 92.39,225.547 91.2233,223.881 91,221.5C 90.3333,216.833 90.3333,212.167 91,207.5C 93.0142,199.956 95.5142,192.623 98.5,185.5C 105.593,175.148 111.26,163.981 115.5,152C 131.031,149.133 146.697,147.633 162.5,147.5C 178.844,148.45 195.177,149.45 211.5,150.5C 211.5,149.167 211.5,147.833 211.5,146.5 Z"/></g>
<g><path style="opacity:1" fill="#fefefe" d="M 109.5,153.5 C 109.664,156.187 109.497,158.854 109,161.5C 107.214,164.736 105.714,168.07 104.5,171.5C 103.662,171.842 103.328,172.508 103.5,173.5C 98.7928,180.248 95.1262,187.581 92.5,195.5C 84.8054,207.885 83.6387,220.885 89,234.5C 91.1572,236.495 93.6572,237.828 96.5,238.5C 99.3054,239.319 102.305,239.819 105.5,240C 99.5025,241.167 93.8359,243 88.5,245.5C 82.216,246.928 76.216,248.928 70.5,251.5C 64.2792,253.144 57.9459,254.144 51.5,254.5C 50.4863,253.326 49.153,252.66 47.5,252.5C 47.3433,251.127 47.51,249.793 48,248.5C 50.571,246.647 53.2377,244.981 56,243.5C 56.7033,241.071 56.5366,238.738 55.5,236.5C 55.0679,235.29 54.4013,234.29 53.5,233.5C 52.9202,231.251 51.5869,229.585 49.5,228.5C 60.016,212.141 69.516,195.141 78,177.5C 83.8569,170.645 90.0235,164.145 96.5,158C 100.251,154.79 104.584,153.29 109.5,153.5 Z"/></g>
<g><path style="opacity:1" fill="#c6c5c5" d="M 210.5,160.5 C 211.843,155.922 214.843,154.422 219.5,156C 219.957,156.414 220.291,156.914 220.5,157.5C 217.439,161.653 213.939,165.32 210,168.5C 208.268,168.266 207.434,167.266 207.5,165.5C 207.757,163.308 208.757,161.641 210.5,160.5 Z"/></g>
<g><path style="opacity:1" fill="#f2f2f3" d="M 210.5,160.5 C 211.962,159.542 213.295,158.376 214.5,157C 215.5,156.333 216.5,156.333 217.5,157C 215.126,159.039 213.126,161.372 211.5,164C 210.668,164.688 210.002,164.521 209.5,163.5C 210.127,162.583 210.461,161.583 210.5,160.5 Z"/></g>
<g><path style="opacity:1" fill="#dfdede" d="M 102.5,148.5 C 101.167,149.833 99.8333,151.167 98.5,152.5C 90.8333,159.5 83.5,166.833 76.5,174.5C 75.8333,174.5 75.5,174.167 75.5,173.5C 77.6326,171.909 79.2993,169.909 80.5,167.5C 86.0073,158.989 93.3407,152.655 102.5,148.5 Z"/></g>
<g><path style="opacity:1" fill="#c2c0c0" d="M 263.5,159.5 C 264.451,160.919 264.784,162.585 264.5,164.5C 263.596,165.209 263.263,166.209 263.5,167.5C 262.325,167.719 261.325,167.386 260.5,166.5C 261.661,164.115 262.661,161.781 263.5,159.5 Z"/></g>
<g><path style="opacity:1" fill="#e0dfe0" d="M 76.5,160.5 C 76.5,160.833 76.5,161.167 76.5,161.5C 75.0115,160.061 73.1782,159.395 71,159.5C 67.0154,160.41 63.182,161.743 59.5,163.5C 62.8853,160.474 66.8853,158.474 71.5,157.5C 73.6924,157.757 75.3591,158.757 76.5,160.5 Z"/></g>
<g><path style="opacity:1" fill="#c4c2c3" d="M 76.5,160.5 C 78.563,162.449 79.8964,164.782 80.5,167.5C 79.2993,169.909 77.6326,171.909 75.5,173.5C 77.3823,169.568 77.7156,165.568 76.5,161.5C 76.5,161.167 76.5,160.833 76.5,160.5 Z"/></g>
<g><path style="opacity:1" fill="#deddde" d="M 41.5,165.5 C 41.1667,165.5 40.8333,165.5 40.5,165.5C 34.2524,163.898 28.2524,164.565 22.5,167.5C 23.9746,165.59 25.9746,164.424 28.5,164C 32.1667,163.333 35.8333,163.333 39.5,164C 40.4158,164.278 41.0825,164.778 41.5,165.5 Z"/></g>
<g><path style="opacity:1" fill="#dad9da" d="M 245.5,166.5 C 244.833,167.833 244.167,169.167 243.5,170.5C 243.739,168.533 243.406,166.699 242.5,165C 239.678,164.572 237.012,165.072 234.5,166.5C 236.858,163.764 239.858,162.93 243.5,164C 244.381,164.708 245.047,165.542 245.5,166.5 Z"/></g>
<g><path style="opacity:1" fill="#c3c2c2" d="M 70.5,180.5 C 72.0779,176.288 72.5779,171.955 72,167.5C 67.966,166.028 64.1327,166.528 60.5,169C 56.3333,172.5 52.1667,176 48,179.5C 45.2841,201.446 35.4507,219.279 18.5,233C 16.6332,233.711 15.1332,233.211 14,231.5C 14.1884,220.12 18.0218,210.12 25.5,201.5C 22.0881,207.993 18.9214,214.659 16,221.5C 15.5026,224.146 15.3359,226.813 15.5,229.5C 19.5302,229.151 22.5302,227.151 24.5,223.5C 27.5497,221.451 29.883,218.784 31.5,215.5C 39.9524,204.254 44.7858,191.587 46,177.5C 47.045,176.627 47.8783,175.627 48.5,174.5C 52.1464,172.183 55.4797,169.516 58.5,166.5C 61.1101,164.363 64.1101,163.03 67.5,162.5C 69.5925,162.486 71.4259,163.152 73,164.5C 75.4266,170.443 74.5933,175.776 70.5,180.5 Z"/></g>
<g><path style="opacity:1" fill="#efefef" d="M 263.5,159.5 C 262.661,161.781 261.661,164.115 260.5,166.5C 261.325,167.386 262.325,167.719 263.5,167.5C 263.263,166.209 263.596,165.209 264.5,164.5C 264.56,165.043 264.893,165.376 265.5,165.5C 266.622,164.37 267.956,163.703 269.5,163.5C 270.586,163.62 271.253,164.287 271.5,165.5C 268.374,170.418 266.374,175.751 265.5,181.5C 265.667,183.167 265.833,184.833 266,186.5C 266.69,187.738 267.19,187.738 267.5,186.5C 269.379,187.341 271.379,187.675 273.5,187.5C 277.167,185.833 279.833,183.167 281.5,179.5C 282.396,178.494 283.062,178.494 283.5,179.5C 279.543,187.471 273.209,191.304 264.5,191C 261.08,186.211 260.58,181.044 263,175.5C 264.626,172.942 265.626,170.275 266,167.5C 263.734,168.956 261.234,169.79 258.5,170C 257.934,170.995 257.267,171.828 256.5,172.5C 256.5,172.167 256.5,171.833 256.5,171.5C 257.075,167.373 258.075,163.373 259.5,159.5C 260.833,158.167 262.167,158.167 263.5,159.5 Z"/></g>
<g><path style="opacity:1" fill="#cdcbcc" d="M 109.5,153.5 C 110.725,154.152 111.392,155.319 111.5,157C 110.345,162.475 108.011,167.309 104.5,171.5C 105.714,168.07 107.214,164.736 109,161.5C 109.497,158.854 109.664,156.187 109.5,153.5 Z"/></g>
<g><path style="opacity:1" fill="#c3c1c2" d="M 41.5,180.5 C 40.201,171.837 35.201,168.67 26.5,171C 17.7548,175.649 12.2548,182.815 10,192.5C 7.52018,194.09 5.68685,193.59 4.5,191C 5.61472,186.6 7.61472,182.767 10.5,179.5C 8.74647,182.652 7.91314,185.985 8,189.5C 11.1543,181.488 15.9876,174.821 22.5,169.5C 31.4878,164.141 38.3211,166.141 43,175.5C 43.8769,177.674 43.3769,179.341 41.5,180.5 Z"/></g>
<g><path style="opacity:1" fill="#cac9c9" d="M 40.5,165.5 C 40.8333,165.5 41.1667,165.5 41.5,165.5C 43.9974,167.844 45.9974,170.511 47.5,173.5C 47.5,173.833 47.5,174.167 47.5,174.5C 46.8826,174.611 46.3826,174.944 46,175.5C 44.9301,171.689 43.0967,168.356 40.5,165.5 Z"/></g>
<g><path style="opacity:1" fill="#c9c8c8" d="M 259.5,159.5 C 258.075,163.373 257.075,167.373 256.5,171.5C 255.833,171.833 255.167,172.167 254.5,172.5C 255.161,169.213 255.661,165.88 256,162.5C 256.759,160.937 257.926,159.937 259.5,159.5 Z"/></g>
<g><path style="opacity:1" fill="#efefef" d="M 40.5,165.5 C 43.0967,168.356 44.9301,171.689 46,175.5C 46.3826,174.944 46.8826,174.611 47.5,174.5C 47.8333,174.5 48.1667,174.5 48.5,174.5C 47.8783,175.627 47.045,176.627 46,177.5C 44.7858,191.587 39.9524,204.254 31.5,215.5C 30.6618,215.158 30.3284,214.492 30.5,213.5C 30.427,211.973 31.0937,210.973 32.5,210.5C 37.1447,204.207 40.4781,197.207 42.5,189.5C 43.0081,186.824 43.1747,184.157 43,181.5C 41.9609,182.71 40.7942,183.71 39.5,184.5C 39.5,183.833 39.5,183.167 39.5,182.5C 39.8333,181.5 40.5,180.833 41.5,180.5C 43.3769,179.341 43.8769,177.674 43,175.5C 38.3211,166.141 31.4878,164.141 22.5,169.5C 21.4937,169.062 21.4937,168.396 22.5,167.5C 28.2524,164.565 34.2524,163.898 40.5,165.5 Z"/></g>
<g><path style="opacity:1" fill="#dfdede" d="M 59.5,163.5 C 59.0472,164.458 58.3805,165.292 57.5,166C 57.7284,166.399 58.0618,166.565 58.5,166.5C 55.4797,169.516 52.1464,172.183 48.5,174.5C 48.1667,174.5 47.8333,174.5 47.5,174.5C 47.5,174.167 47.5,173.833 47.5,173.5C 50.7524,169.216 54.7524,165.882 59.5,163.5 Z"/></g>
<g><path style="opacity:1" fill="#eff0f0" d="M 211.5,172.5 C 210.624,172.369 209.957,172.702 209.5,173.5C 205.085,180.235 203.251,187.569 204,195.5C 204.69,196.738 205.19,196.738 205.5,195.5C 207.216,195.371 208.883,195.038 210.5,194.5C 211.492,194.328 212.158,194.662 212.5,195.5C 209.48,198.68 205.813,200.18 201.5,200C 200.874,199.25 200.374,198.416 200,197.5C 199.498,193.759 199.498,190.092 200,186.5C 195.5,193.667 189.667,199.5 182.5,204C 179.833,204.667 177.167,204.667 174.5,204C 172.393,202.736 171.393,200.903 171.5,198.5C 171.823,194.543 171.823,190.71 171.5,187C 172.386,185.385 173.386,183.885 174.5,182.5C 175.167,182.167 175.833,181.833 176.5,181.5C 175,184.835 174,188.335 173.5,192C 173.393,194.221 174.06,196.054 175.5,197.5C 178.32,200.761 181.654,201.261 185.5,199C 191.761,193.577 197.094,187.41 201.5,180.5C 203.588,178.664 204.921,176.331 205.5,173.5C 207.402,171.849 209.402,171.516 211.5,172.5 Z"/></g>
<g><path style="opacity:1" fill="#f3f3f4" d="M 147.5,183.5 C 146.01,185.28 144.01,185.946 141.5,185.5C 141.167,185.5 140.833,185.5 140.5,185.5C 140.336,182.813 140.503,180.146 141,177.5C 142.789,174.821 143.955,174.987 144.5,178C 144.259,179.984 143.592,181.817 142.5,183.5C 144.095,184.434 145.761,184.434 147.5,183.5 Z"/></g>
<g><path style="opacity:1" fill="#e1e1e1" d="M 291.5,165.5 C 292.239,165.369 292.906,165.536 293.5,166C 290.511,170.835 287.178,175.335 283.5,179.5C 283.062,178.494 282.396,178.494 281.5,179.5C 284.453,174.55 287.786,169.883 291.5,165.5 Z"/></g>
<g><path style="opacity:1" fill="#cecdcd" d="M 205.5,173.5 C 204.921,176.331 203.588,178.664 201.5,180.5C 202.079,177.669 203.412,175.336 205.5,173.5 Z"/></g>
<g><path style="opacity:1" fill="#cfcdce" d="M 226.5,175.5 C 226.573,177.027 225.906,178.027 224.5,178.5C 224.427,176.973 225.094,175.973 226.5,175.5 Z"/></g>
<g><path style="opacity:1" fill="#eeeeee" d="M 243.5,170.5 C 240.594,178.405 234.927,182.405 226.5,182.5C 226.336,185.187 226.503,187.854 227,190.5C 227.422,192.426 228.589,193.426 230.5,193.5C 233.344,194.551 236.344,194.551 239.5,193.5C 235.801,198.396 231.134,199.563 225.5,197C 222.547,193.157 221.88,188.99 223.5,184.5C 223.867,182.544 224.2,180.544 224.5,178.5C 225.906,178.027 226.573,177.027 226.5,175.5C 228.022,171.436 230.689,168.436 234.5,166.5C 237.012,165.072 239.678,164.572 242.5,165C 243.406,166.699 243.739,168.533 243.5,170.5 Z"/></g>
<g><path style="opacity:1" fill="#f9f9f9" d="M 237.5,176.5 C 235.167,177.833 232.833,179.167 230.5,180.5C 231.462,175.21 234.462,171.877 239.5,170.5C 239.296,172.685 238.63,174.685 237.5,176.5 Z"/></g>
<g><path style="opacity:1" fill="#c3c1c2" d="M 237.5,176.5 C 238.63,174.685 239.296,172.685 239.5,170.5C 234.462,171.877 231.462,175.21 230.5,180.5C 229.791,181.404 228.791,181.737 227.5,181.5C 228.512,174.323 232.345,169.323 239,166.5C 239.772,166.645 240.439,166.978 241,167.5C 242.041,171.41 240.875,174.41 237.5,176.5 Z"/></g>
<g><path style="opacity:1" fill="#c2c0c1" d="M 245.5,166.5 C 246.667,169.88 246.167,173.213 244,176.5C 240.351,182.237 235.184,185.237 228.5,185.5C 228.107,188.513 228.774,191.18 230.5,193.5C 228.589,193.426 227.422,192.426 227,190.5C 226.503,187.854 226.336,185.187 226.5,182.5C 234.927,182.405 240.594,178.405 243.5,170.5C 244.167,169.167 244.833,167.833 245.5,166.5 Z"/></g>
<g><path style="opacity:1" fill="#ececed" d="M 197.5,172.5 C 195.589,178.079 191.923,182.079 186.5,184.5C 185.535,183.279 185.702,181.946 187,180.5C 189.617,179.781 191.784,178.447 193.5,176.5C 194.817,171.655 192.817,169.822 187.5,171C 183.305,174.03 179.639,177.53 176.5,181.5C 175.833,181.833 175.167,182.167 174.5,182.5C 174.5,182.167 174.5,181.833 174.5,181.5C 178.551,173.591 184.885,169.091 193.5,168C 195.644,168.792 196.977,170.292 197.5,172.5 Z"/></g>
<g><path style="opacity:1" fill="#c4c3c3" d="M 269.5,163.5 C 271.988,162.082 273.654,162.916 274.5,166C 272.35,170.157 270.184,174.323 268,178.5C 267.503,181.146 267.336,183.813 267.5,186.5C 267.19,187.738 266.69,187.738 266,186.5C 265.833,184.833 265.667,183.167 265.5,181.5C 266.374,175.751 268.374,170.418 271.5,165.5C 271.253,164.287 270.586,163.62 269.5,163.5 Z"/></g>
<g><path style="opacity:1" fill="#e4e4e4" d="M 22.5,167.5 C 21.4937,168.396 21.4937,169.062 22.5,169.5C 15.9876,174.821 11.1543,181.488 8,189.5C 7.91314,185.985 8.74647,182.652 10.5,179.5C 12.8333,173.833 16.8333,169.833 22.5,167.5 Z"/></g>
<g><path style="opacity:1" fill="#f0f0f1" d="M 154.5,179.5 C 152.885,184.731 150.718,189.731 148,194.5C 147.278,197.261 147.445,199.927 148.5,202.5C 150.882,205.862 153.549,206.195 156.5,203.5C 159.056,202.457 161.223,200.79 163,198.5C 163.399,198.728 163.565,199.062 163.5,199.5C 159.499,206.003 153.833,208.337 146.5,206.5C 144.971,204.293 144.305,201.793 144.5,199C 144.684,196.135 145.018,193.302 145.5,190.5C 146.81,188.565 148.143,186.565 149.5,184.5C 149.043,183.702 148.376,183.369 147.5,183.5C 147.5,183.167 147.5,182.833 147.5,182.5C 149.187,180.834 151.187,179.5 153.5,178.5C 154.107,178.624 154.44,178.957 154.5,179.5 Z"/></g>
<g><path style="opacity:1" fill="#c7c6c6" d="M 193.5,176.5 C 193.586,175.504 193.252,174.671 192.5,174C 190.833,173.333 189.167,173.333 187.5,174C 178.598,179.304 174.598,187.138 175.5,197.5C 174.06,196.054 173.393,194.221 173.5,192C 174,188.335 175,184.835 176.5,181.5C 179.639,177.53 183.305,174.03 187.5,171C 192.817,169.822 194.817,171.655 193.5,176.5 Z"/></g>
<g><path style="opacity:1" fill="#c1c0c0" d="M 197.5,172.5 C 197.254,178.92 194.087,183.253 188,185.5C 187.235,185.43 186.735,185.097 186.5,184.5C 191.923,182.079 195.589,178.079 197.5,172.5 Z"/></g>
<g><path style="opacity:1" fill="#cccccc" d="M 68.5,183.5 C 68.573,185.027 67.9063,186.027 66.5,186.5C 66.427,184.973 67.0937,183.973 68.5,183.5 Z"/></g>
<g><path style="opacity:1" fill="#cdcccc" d="M 66.5,186.5 C 66.573,188.027 65.9063,189.027 64.5,189.5C 64.427,187.973 65.0937,186.973 66.5,186.5 Z"/></g>
<g><path style="opacity:1" fill="#dbdbdb" d="M 39.5,182.5 C 39.5,183.167 39.5,183.833 39.5,184.5C 35.4928,190.172 31.4928,195.839 27.5,201.5C 27.0623,200.494 26.3957,200.494 25.5,201.5C 26.7226,198.726 28.2226,196.059 30,193.5C 33.0316,189.641 36.1983,185.974 39.5,182.5 Z"/></g>
<g><path style="opacity:1" fill="#e3e3e3" d="M 256.5,171.5 C 256.5,171.833 256.5,172.167 256.5,172.5C 252.47,180.932 246.804,187.932 239.5,193.5C 236.344,194.551 233.344,194.551 230.5,193.5C 234.331,193.751 237.664,192.584 240.5,190C 245.787,184.553 250.453,178.72 254.5,172.5C 255.167,172.167 255.833,171.833 256.5,171.5 Z"/></g>
<g><path style="opacity:1" fill="#cecdce" d="M 147.5,182.5 C 147.5,182.833 147.5,183.167 147.5,183.5C 145.761,184.434 144.095,184.434 142.5,183.5C 143.592,181.817 144.259,179.984 144.5,178C 143.955,174.987 142.789,174.821 141,177.5C 140.503,180.146 140.336,182.813 140.5,185.5C 138.213,189.122 135.547,192.455 132.5,195.5C 134.048,191.939 136.048,188.606 138.5,185.5C 137.257,181.454 138.257,177.954 141.5,175C 143.701,174.175 145.534,174.675 147,176.5C 147.04,178.724 147.206,180.724 147.5,182.5 Z"/></g>
<g><path style="opacity:1" fill="#cccbcc" d="M 64.5,189.5 C 64.573,191.027 63.9063,192.027 62.5,192.5C 62.427,190.973 63.0937,189.973 64.5,189.5 Z"/></g>
<g><path style="opacity:1" fill="#cbc9ca" d="M 103.5,173.5 C 101.833,177.5 100.167,181.5 98.5,185.5C 96.5,188.833 94.5,192.167 92.5,195.5C 95.1262,187.581 98.7928,180.248 103.5,173.5 Z"/></g>
<g><path style="opacity:1" fill="#c2c0c1" d="M 154.5,179.5 C 155.88,179.962 156.547,180.962 156.5,182.5C 154.473,187.213 152.473,191.88 150.5,196.5C 149.833,198.5 149.167,200.5 148.5,202.5C 147.445,199.927 147.278,197.261 148,194.5C 150.718,189.731 152.885,184.731 154.5,179.5 Z"/></g>
<g><path style="opacity:1" fill="#c3c2c2" d="M 211.5,172.5 C 210.589,176.998 209.089,181.332 207,185.5C 206.174,188.793 205.674,192.126 205.5,195.5C 205.19,196.738 204.69,196.738 204,195.5C 203.251,187.569 205.085,180.235 209.5,173.5C 209.957,172.702 210.624,172.369 211.5,172.5 Z"/></g>
<g><path style="opacity:1" fill="#dfdedf" d="M 224.5,178.5 C 224.2,180.544 223.867,182.544 223.5,184.5C 223.565,184.062 223.399,183.728 223,183.5C 219.718,187.759 216.218,191.759 212.5,195.5C 212.158,194.662 211.492,194.328 210.5,194.5C 215.177,189.126 219.843,183.793 224.5,178.5 Z"/></g>
<g><path style="opacity:1" fill="#c2c1c1" d="M 291.5,165.5 C 293.377,164.072 294.711,164.572 295.5,167C 290.628,176.394 284.295,184.727 276.5,192C 271.071,195.435 265.904,195.269 261,191.5C 258.747,185.274 259.247,179.274 262.5,173.5C 262,173.167 261.5,172.833 261,172.5C 256.009,179.136 251.009,185.802 246,192.5C 242.755,196.198 238.922,199.032 234.5,201C 226.263,203.05 221.596,199.884 220.5,191.5C 216.162,197.087 210.662,201.087 204,203.5C 202.188,203.507 200.688,202.84 199.5,201.5C 198.103,199.018 197.269,196.352 197,193.5C 193.067,199.434 187.9,203.934 181.5,207C 175.463,208.79 171.796,206.623 170.5,200.5C 170.328,199.508 170.662,198.842 171.5,198.5C 171.393,200.903 172.393,202.736 174.5,204C 177.167,204.667 179.833,204.667 182.5,204C 189.667,199.5 195.5,193.667 200,186.5C 199.498,190.092 199.498,193.759 200,197.5C 200.374,198.416 200.874,199.25 201.5,200C 205.813,200.18 209.48,198.68 212.5,195.5C 216.218,191.759 219.718,187.759 223,183.5C 223.399,183.728 223.565,184.062 223.5,184.5C 221.88,188.99 222.547,193.157 225.5,197C 231.134,199.563 235.801,198.396 239.5,193.5C 246.804,187.932 252.47,180.932 256.5,172.5C 257.267,171.828 257.934,170.995 258.5,170C 261.234,169.79 263.734,168.956 266,167.5C 265.626,170.275 264.626,172.942 263,175.5C 260.58,181.044 261.08,186.211 264.5,191C 273.209,191.304 279.543,187.471 283.5,179.5C 287.178,175.335 290.511,170.835 293.5,166C 292.906,165.536 292.239,165.369 291.5,165.5 Z"/></g>
<g><path style="opacity:1" fill="#d6d6d6" d="M 281.5,179.5 C 279.833,183.167 277.167,185.833 273.5,187.5C 275.833,184.5 278.5,181.833 281.5,179.5 Z"/></g>
<g><path style="opacity:1" fill="#fbfbfb" d="M 39.5,189.5 C 40.0967,189.735 40.4301,190.235 40.5,191C 38.2351,197.692 35.5685,204.192 32.5,210.5C 31.0937,210.973 30.427,211.973 30.5,213.5C 27.8333,216.5 25.1667,219.5 22.5,222.5C 21.6618,222.158 21.3284,221.492 21.5,220.5C 25.7025,209.091 31.7025,198.758 39.5,189.5 Z"/></g>
<g><path style="opacity:1" fill="#f1f1f2" d="M 76.5,161.5 C 77.7156,165.568 77.3823,169.568 75.5,173.5C 75.5,174.167 75.8333,174.5 76.5,174.5C 68.9485,189.267 61.1152,203.934 53,218.5C 50.9661,221.909 48.4661,224.909 45.5,227.5C 44.6143,226.675 44.281,225.675 44.5,224.5C 46.9922,220.849 48.9922,216.849 50.5,212.5C 54.5863,207.335 57.9196,201.668 60.5,195.5C 61.9063,195.027 62.573,194.027 62.5,192.5C 63.9063,192.027 64.573,191.027 64.5,189.5C 65.9063,189.027 66.573,188.027 66.5,186.5C 67.9063,186.027 68.573,185.027 68.5,183.5C 68.427,181.973 69.0937,180.973 70.5,180.5C 74.5933,175.776 75.4266,170.443 73,164.5C 71.4259,163.152 69.5925,162.486 67.5,162.5C 64.1101,163.03 61.1101,164.363 58.5,166.5C 58.0618,166.565 57.7284,166.399 57.5,166C 58.3805,165.292 59.0472,164.458 59.5,163.5C 63.182,161.743 67.0154,160.41 71,159.5C 73.1782,159.395 75.0115,160.061 76.5,161.5 Z"/></g>
<g><path style="opacity:1" fill="#cbcacb" d="M 39.5,189.5 C 40.3478,188.375 41.3478,188.375 42.5,189.5C 40.4781,197.207 37.1447,204.207 32.5,210.5C 35.5685,204.192 38.2351,197.692 40.5,191C 40.4301,190.235 40.0967,189.735 39.5,189.5 Z"/></g>
<g><path style="opacity:1" fill="#cdcccc" d="M 62.5,192.5 C 62.573,194.027 61.9063,195.027 60.5,195.5C 60.427,193.973 61.0937,192.973 62.5,192.5 Z"/></g>
<g><path style="opacity:1" fill="#ededed" d="M 125.5,180.5 C 126.189,191.505 120.856,197.839 109.5,199.5C 109.336,202.187 109.503,204.854 110,207.5C 110.383,208.056 110.883,208.389 111.5,208.5C 113.782,209.39 116.115,209.556 118.5,209C 120.717,207.277 123.05,205.777 125.5,204.5C 126.794,203.71 127.961,202.71 129,201.5C 129.399,201.728 129.565,202.062 129.5,202.5C 125.955,207.211 121.621,211.045 116.5,214C 109.523,215.528 105.857,212.695 105.5,205.5C 106.108,199.296 108.108,193.629 111.5,188.5C 113.861,183.723 117.695,180.723 123,179.5C 124.07,179.528 124.903,179.861 125.5,180.5 Z"/></g>
<g><path style="opacity:1" fill="#c3c1c2" d="M 116.5,195.5 C 118.86,193.135 120.86,190.468 122.5,187.5C 122,187.167 121.5,186.833 121,186.5C 116.998,188.837 114.164,192.17 112.5,196.5C 111.528,197.751 110.861,197.418 110.5,195.5C 112.504,188.148 117.17,184.148 124.5,183.5C 124.306,189.24 121.639,193.24 116.5,195.5 Z"/></g>
<g><path style="opacity:1" fill="#fafafa" d="M 116.5,195.5 C 115.167,195.833 113.833,196.167 112.5,196.5C 114.164,192.17 116.998,188.837 121,186.5C 121.5,186.833 122,187.167 122.5,187.5C 120.86,190.468 118.86,193.135 116.5,195.5 Z"/></g>
<g><path style="opacity:1" fill="#c3c1c1" d="M 125.5,180.5 C 126.75,180.577 127.583,181.244 128,182.5C 128.057,192.97 122.891,199.637 112.5,202.5C 111.534,204.396 111.201,206.396 111.5,208.5C 110.883,208.389 110.383,208.056 110,207.5C 109.503,204.854 109.336,202.187 109.5,199.5C 120.856,197.839 126.189,191.505 125.5,180.5 Z"/></g>
<g><path style="opacity:1" fill="#deddde" d="M 174.5,181.5 C 174.5,181.833 174.5,182.167 174.5,182.5C 173.386,183.885 172.386,185.385 171.5,187C 171.823,190.71 171.823,194.543 171.5,198.5C 170.662,198.842 170.328,199.508 170.5,200.5C 169.833,199.5 169.167,198.5 168.5,197.5C 170.243,195.874 170.743,193.874 170,191.5C 167.969,194.355 165.803,197.022 163.5,199.5C 163.565,199.062 163.399,198.728 163,198.5C 161.223,200.79 159.056,202.457 156.5,203.5C 162.908,196.433 168.908,189.099 174.5,181.5 Z"/></g>
<g><path style="opacity:1" fill="#c4c2c3" d="M 145.5,190.5 C 145.018,193.302 144.684,196.135 144.5,199C 144.305,201.793 144.971,204.293 146.5,206.5C 153.833,208.337 159.499,206.003 163.5,199.5C 165.803,197.022 167.969,194.355 170,191.5C 170.743,193.874 170.243,195.874 168.5,197.5C 164.94,203.557 159.94,208.057 153.5,211C 148.78,212.268 145.28,210.768 143,206.5C 142.333,202.5 142.333,198.5 143,194.5C 143.608,192.934 144.442,191.6 145.5,190.5 Z"/></g>
<g><path style="opacity:1" fill="#e3e3e3" d="M 140.5,185.5 C 140.833,185.5 141.167,185.5 141.5,185.5C 138.225,191.731 134.225,197.397 129.5,202.5C 129.565,202.062 129.399,201.728 129,201.5C 127.961,202.71 126.794,203.71 125.5,204.5C 127.458,201.208 129.791,198.208 132.5,195.5C 135.547,192.455 138.213,189.122 140.5,185.5 Z"/></g>
<g><path style="opacity:1" fill="#c2c1c1" d="M 92.5,195.5 C 90.9039,201.125 89.4039,206.792 88,212.5C 84.3049,230.68 91.4716,238.18 109.5,235C 113.531,234.519 117.531,233.853 121.5,233C 139.142,227.064 156.809,221.23 174.5,215.5C 188.17,211.309 202.17,208.975 216.5,208.5C 229.315,207.282 241.981,205.949 254.5,204.5C 259.64,203.512 264.974,203.179 270.5,203.5C 270.5,204.833 270.5,206.167 270.5,207.5C 243.055,208.697 215.722,211.197 188.5,215C 168.918,220.472 149.584,226.639 130.5,233.5C 129.167,233.833 127.833,234.167 126.5,234.5C 123.603,235.129 120.936,236.129 118.5,237.5C 115.583,238.417 112.583,239.084 109.5,239.5C 105.366,238.515 101.032,238.182 96.5,238.5C 93.6572,237.828 91.1572,236.495 89,234.5C 83.6387,220.885 84.8054,207.885 92.5,195.5 Z"/></g>
<g><path style="opacity:1" fill="#e0dfdf" d="M 150.5,196.5 C 150.5,198.833 150.5,201.167 150.5,203.5C 152.5,203.5 154.5,203.5 156.5,203.5C 153.549,206.195 150.882,205.862 148.5,202.5C 149.167,200.5 149.833,198.5 150.5,196.5 Z"/></g>
<g><path style="opacity:1" fill="#c3c2c2" d="M 147.5,183.5 C 148.376,183.369 149.043,183.702 149.5,184.5C 148.143,186.565 146.81,188.565 145.5,190.5C 145.052,188.535 144.052,188.202 142.5,189.5C 137.41,197.425 131.743,204.925 125.5,212C 121.824,215.088 117.657,217.255 113,218.5C 106.45,216.945 103.283,212.778 103.5,206C 104.169,199.168 106.836,193.334 111.5,188.5C 108.108,193.629 106.108,199.296 105.5,205.5C 105.857,212.695 109.523,215.528 116.5,214C 121.621,211.045 125.955,207.211 129.5,202.5C 134.225,197.397 138.225,191.731 141.5,185.5C 144.01,185.946 146.01,185.28 147.5,183.5 Z"/></g>
<g><path style="opacity:1" fill="#dfdfdf" d="M 254.5,204.5 C 241.981,205.949 229.315,207.282 216.5,208.5C 214.167,207.833 211.833,207.167 209.5,206.5C 224.46,205.035 239.46,204.368 254.5,204.5 Z"/></g>
<g><path style="opacity:1" fill="#cdcccc" d="M 60.5,195.5 C 57.9196,201.668 54.5863,207.335 50.5,212.5C 53.0441,206.308 56.3774,200.641 60.5,195.5 Z"/></g>
<g><path style="opacity:1" fill="#f1f1f2" d="M 98.5,185.5 C 95.5142,192.623 93.0142,199.956 91,207.5C 90.3333,212.167 90.3333,216.833 91,221.5C 91.2233,223.881 92.39,225.547 94.5,226.5C 96.052,228.959 98.3854,230.459 101.5,231C 106.597,231.81 110.931,231.643 114.5,230.5C 115.209,229.596 116.209,229.263 117.5,229.5C 126.185,229.58 134.518,227.58 142.5,223.5C 143.209,222.596 144.209,222.263 145.5,222.5C 154.731,220.146 163.897,217.48 173,214.5C 173.765,214.57 174.265,214.903 174.5,215.5C 156.809,221.23 139.142,227.064 121.5,233C 117.531,233.853 113.531,234.519 109.5,235C 91.4716,238.18 84.3049,230.68 88,212.5C 89.4039,206.792 90.9039,201.125 92.5,195.5C 94.5,192.167 96.5,188.833 98.5,185.5 Z"/></g>
<g><path style="opacity:1" fill="#c2c0c1" d="M 109.5,153.5 C 104.584,153.29 100.251,154.79 96.5,158C 90.0235,164.145 83.8569,170.645 78,177.5C 69.516,195.141 60.016,212.141 49.5,228.5C 48.5,228.833 47.8333,229.5 47.5,230.5C 45.9902,231.728 44.4902,231.728 43,230.5C 42.2615,228.119 42.7615,226.119 44.5,224.5C 44.281,225.675 44.6143,226.675 45.5,227.5C 48.4661,224.909 50.9661,221.909 53,218.5C 61.1152,203.934 68.9485,189.267 76.5,174.5C 83.5,166.833 90.8333,159.5 98.5,152.5C 102.355,150.518 106.355,150.185 110.5,151.5C 110.137,152.183 109.804,152.85 109.5,153.5 Z"/></g>
<g><path style="opacity:1" fill="#e8e8e9" d="M 209.5,206.5 C 211.833,207.167 214.167,207.833 216.5,208.5C 202.17,208.975 188.17,211.309 174.5,215.5C 174.265,214.903 173.765,214.57 173,214.5C 163.897,217.48 154.731,220.146 145.5,222.5C 165.956,214.053 187.289,208.719 209.5,206.5 Z"/></g>
<g><path style="opacity:1" fill="#dfdedf" d="M 30.5,213.5 C 30.3284,214.492 30.6618,215.158 31.5,215.5C 29.883,218.784 27.5497,221.451 24.5,223.5C 23.5084,223.672 22.8417,223.338 22.5,222.5C 25.1667,219.5 27.8333,216.5 30.5,213.5 Z"/></g>
<g><path style="opacity:1" fill="#c2c0c1" d="M 42.5,189.5 C 41.3478,188.375 40.3478,188.375 39.5,189.5C 31.7025,198.758 25.7025,209.091 21.5,220.5C 20.6981,221.952 20.1981,223.618 20,225.5C 18.482,223.386 18.1487,221.053 19,218.5C 21.3194,212.528 24.1527,206.861 27.5,201.5C 31.4928,195.839 35.4928,190.172 39.5,184.5C 40.7942,183.71 41.9609,182.71 43,181.5C 43.1747,184.157 43.0081,186.824 42.5,189.5 Z"/></g>
<g><path style="opacity:1" fill="#cbcacb" d="M 50.5,212.5 C 48.9922,216.849 46.9922,220.849 44.5,224.5C 45.4598,219.914 47.4598,215.914 50.5,212.5 Z"/></g>
<g><path style="opacity:1" fill="#efeff0" d="M 27.5,201.5 C 24.1527,206.861 21.3194,212.528 19,218.5C 18.1487,221.053 18.482,223.386 20,225.5C 20.1981,223.618 20.6981,221.952 21.5,220.5C 21.3284,221.492 21.6618,222.158 22.5,222.5C 22.8417,223.338 23.5084,223.672 24.5,223.5C 22.5302,227.151 19.5302,229.151 15.5,229.5C 15.3359,226.813 15.5026,224.146 16,221.5C 18.9214,214.659 22.0881,207.993 25.5,201.5C 26.3957,200.494 27.0623,200.494 27.5,201.5 Z"/></g>
<g><path style="opacity:1" fill="#e1e1e1" d="M 142.5,223.5 C 134.518,227.58 126.185,229.58 117.5,229.5C 125.942,227.907 134.275,225.907 142.5,223.5 Z"/></g>
<g><path style="opacity:1" fill="#f1f1f2" d="M 49.5,228.5 C 51.5869,229.585 52.9202,231.251 53.5,233.5C 53.5,235.833 53.5,238.167 53.5,240.5C 51.5136,242.795 49.0136,244.461 46,245.5C 45.3333,247.5 45.3333,249.5 46,251.5C 46.3826,252.056 46.8826,252.389 47.5,252.5C 49.153,252.66 50.4863,253.326 51.5,254.5C 58.1386,255.93 64.4719,254.93 70.5,251.5C 76.216,248.928 82.216,246.928 88.5,245.5C 95.7266,243.947 102.727,241.947 109.5,239.5C 112.583,239.084 115.583,238.417 118.5,237.5C 121.839,237.11 125.173,236.61 128.5,236C 127.584,235.722 126.918,235.222 126.5,234.5C 127.833,234.167 129.167,233.833 130.5,233.5C 130.5,233.833 130.5,234.167 130.5,234.5C 146.745,234.481 163.745,234.648 181.5,235C 188.691,235.628 195.857,236.461 203,237.5C 204.385,237.486 205.551,237.152 206.5,236.5C 207.492,236.328 208.158,236.662 208.5,237.5C 211.154,238.992 214.654,239.992 219,240.5C 220.07,240.472 220.903,240.139 221.5,239.5C 222.167,239.5 222.5,239.833 222.5,240.5C 229.605,243.2 236.938,245.533 244.5,247.5C 247.418,248.454 250.418,249.121 253.5,249.5C 256.514,249.742 259.014,248.742 261,246.5C 261.667,243.167 261.667,239.833 261,236.5C 256.383,233.762 256.383,231.096 261,228.5C 264.737,231.412 267.571,235.079 269.5,239.5C 268.737,243.952 267.237,248.285 265,252.5C 261.717,255.317 257.883,256.65 253.5,256.5C 238.42,251.728 223.087,247.562 207.5,244C 197.552,242.286 187.552,241.119 177.5,240.5C 177.514,246.581 178.181,252.581 179.5,258.5C 181.329,262.864 183.996,263.531 187.5,260.5C 191.167,259.167 194.833,259.167 198.5,260.5C 199.833,260.5 200.5,261.167 200.5,262.5C 202.881,266.486 203.881,270.82 203.5,275.5C 200.742,286.184 194.076,290.85 183.5,289.5C 175.723,283.946 170.39,276.613 167.5,267.5C 166.779,262.933 165.446,259.266 163.5,256.5C 161.855,251.766 161.189,246.766 161.5,241.5C 163.035,240.646 164.368,240.646 165.5,241.5C 167.361,247.964 169.361,254.297 171.5,260.5C 171.343,259.127 171.51,257.793 172,256.5C 172.556,258.595 173.056,258.762 173.5,257C 172.922,255.189 172.422,253.355 172,251.5C 171.667,252.5 171.333,253.5 171,254.5C 170.082,250.563 168.915,246.73 167.5,243C 168.094,242.536 168.761,242.369 169.5,242.5C 170.404,241.791 170.737,240.791 170.5,239.5C 166.167,239.5 161.833,239.5 157.5,239.5C 158.509,248.551 159.842,257.551 161.5,266.5C 167.886,283.323 172.219,300.656 174.5,318.5C 172.928,321.634 170.262,323.3 166.5,323.5C 163.634,323.069 160.968,322.069 158.5,320.5C 156.452,325.284 153.452,329.284 149.5,332.5C 148.167,332.5 146.833,332.5 145.5,332.5C 142.442,330.757 140.442,328.09 139.5,324.5C 139.5,323.5 139.5,322.5 139.5,321.5C 135.07,322.599 130.737,323.599 126.5,324.5C 124.101,323.102 122.434,321.102 121.5,318.5C 122.724,313.236 124.391,308.236 126.5,303.5C 129.944,294.826 132.61,285.826 134.5,276.5C 137.082,270.173 138.748,263.507 139.5,256.5C 139.5,255.167 139.5,253.833 139.5,252.5C 140.833,248.5 140.833,244.5 139.5,240.5C 136.14,240.616 132.807,240.949 129.5,241.5C 129.037,253.044 125.371,263.377 118.5,272.5C 116.343,273.05 114.343,273.717 112.5,274.5C 111.094,274.027 110.427,273.027 110.5,271.5C 109.538,267.854 107.205,266.687 103.5,268C 103,268.5 102.5,269 102,269.5C 101.333,272.833 101.333,276.167 102,279.5C 102.383,280.056 102.883,280.389 103.5,280.5C 105.031,282.68 107.198,283.68 110,283.5C 112.221,283.607 114.054,282.94 115.5,281.5C 117.883,280.115 119.55,278.115 120.5,275.5C 122.85,273.641 124.684,271.308 126,268.5C 129.089,260.735 131.256,252.735 132.5,244.5C 133.965,242.576 135.632,242.243 137.5,243.5C 139.424,243.711 139.757,244.377 138.5,245.5C 136.185,258.923 131.018,271.257 123,282.5C 116.983,290.135 109.816,291.801 101.5,287.5C 94.664,282.49 92.4973,275.824 95,267.5C 99.2398,257.778 105.406,256.111 113.5,262.5C 115.489,263.887 117.322,263.553 119,261.5C 121.122,256.726 122.288,251.726 122.5,246.5C 122.5,245.5 122.5,244.5 122.5,243.5C 102.583,248.852 82.5835,254.019 62.5,259C 55.8347,260.613 49.168,260.78 42.5,259.5C 40.9826,259.489 39.8159,258.823 39,257.5C 34.9853,249.057 36.8186,242.223 44.5,237C 44.0426,236.586 43.7093,236.086 43.5,235.5C 45.1256,234.01 46.7923,232.51 48.5,231C 48.2716,230.601 47.9382,230.435 47.5,230.5C 47.8333,229.5 48.5,228.833 49.5,228.5 Z"/></g>
<g><path style="opacity:1" fill="#dcdbdc" d="M 94.5,226.5 C 100.637,230.021 107.304,231.355 114.5,230.5C 110.931,231.643 106.597,231.81 101.5,231C 98.3854,230.459 96.052,228.959 94.5,226.5 Z"/></g>
<g><path style="opacity:1" fill="#e6e6e6" d="M 206.5,236.5 C 205.551,237.152 204.385,237.486 203,237.5C 195.857,236.461 188.691,235.628 181.5,235C 163.745,234.648 146.745,234.481 130.5,234.5C 155.907,231.737 181.241,232.404 206.5,236.5 Z"/></g>
<g><path style="opacity:1" fill="#dad9d9" d="M 126.5,234.5 C 126.918,235.222 127.584,235.722 128.5,236C 125.173,236.61 121.839,237.11 118.5,237.5C 120.936,236.129 123.603,235.129 126.5,234.5 Z"/></g>
<g><path style="opacity:1" fill="#d8d8d8" d="M 53.5,233.5 C 54.4013,234.29 55.0679,235.29 55.5,236.5C 54.8333,237.833 54.1667,239.167 53.5,240.5C 53.5,238.167 53.5,235.833 53.5,233.5 Z"/></g>
<g><path style="opacity:1" fill="#e2e1e1" d="M 208.5,237.5 C 212.876,237.909 217.21,238.575 221.5,239.5C 220.903,240.139 220.07,240.472 219,240.5C 214.654,239.992 211.154,238.992 208.5,237.5 Z"/></g>
<g><path style="opacity:1" fill="#c3c1c2" d="M 55.5,236.5 C 56.5366,238.738 56.7033,241.071 56,243.5C 53.2377,244.981 50.571,246.647 48,248.5C 47.51,249.793 47.3433,251.127 47.5,252.5C 46.8826,252.389 46.3826,252.056 46,251.5C 45.3333,249.5 45.3333,247.5 46,245.5C 49.0136,244.461 51.5136,242.795 53.5,240.5C 54.1667,239.167 54.8333,237.833 55.5,236.5 Z"/></g>
<g><path style="opacity:1" fill="#fefefe" d="M 155.5,269.5 C 155.875,271.698 156.542,273.698 157.5,275.5C 158.409,282.141 160.076,288.474 162.5,294.5C 163.644,302.242 165.644,309.742 168.5,317C 165.228,317.788 162.228,317.288 159.5,315.5C 158.207,313.704 156.707,312.037 155,310.5C 153.322,315.534 151.489,320.534 149.5,325.5C 148.5,326.833 147.5,326.833 146.5,325.5C 146.583,321.665 145.917,317.998 144.5,314.5C 144.092,313.357 143.425,312.357 142.5,311.5C 140.059,312.709 138.059,314.376 136.5,316.5C 135.5,316.5 134.5,316.5 133.5,316.5C 138.621,297.684 142.954,278.684 146.5,259.5C 147.489,254.025 147.822,248.358 147.5,242.5C 149.167,242.5 150.833,242.5 152.5,242.5C 153.418,251.51 154.418,260.51 155.5,269.5 Z"/></g>
<g><path style="opacity:1" fill="#e0e0e0" d="M 152.5,239.5 C 154.147,247.975 155.48,256.642 156.5,265.5C 156.489,267.045 156.156,268.378 155.5,269.5C 154.418,260.51 153.418,251.51 152.5,242.5C 150.833,242.5 149.167,242.5 147.5,242.5C 147.822,248.358 147.489,254.025 146.5,259.5C 146.5,253.5 146.5,247.5 146.5,241.5C 149.082,241.975 151.082,241.308 152.5,239.5 Z"/></g>
<g><path style="opacity:1" fill="#e1e1e1" d="M 96.5,238.5 C 101.032,238.182 105.366,238.515 109.5,239.5C 102.727,241.947 95.7266,243.947 88.5,245.5C 93.8359,243 99.5025,241.167 105.5,240C 102.305,239.819 99.3054,239.319 96.5,238.5 Z"/></g>
<g><path style="opacity:1" fill="#dbdada" d="M 139.5,240.5 C 140.833,244.5 140.833,248.5 139.5,252.5C 139.702,250.05 139.369,247.717 138.5,245.5C 139.757,244.377 139.424,243.711 137.5,243.5C 138.551,242.778 139.218,241.778 139.5,240.5 Z"/></g>
<g><path style="opacity:1" fill="#c4c3c3" d="M 269.5,239.5 C 272.231,251.037 267.731,257.703 256,259.5C 242.9,255.467 229.734,251.634 216.5,248C 204.29,245.432 191.956,243.932 179.5,243.5C 179.467,247.869 179.8,252.202 180.5,256.5C 180.672,257.492 180.338,258.158 179.5,258.5C 178.181,252.581 177.514,246.581 177.5,240.5C 187.552,241.119 197.552,242.286 207.5,244C 223.087,247.562 238.42,251.728 253.5,256.5C 257.883,256.65 261.717,255.317 265,252.5C 267.237,248.285 268.737,243.952 269.5,239.5 Z"/></g>
<g><path style="opacity:1" fill="#e1e1e1" d="M 222.5,240.5 C 230.302,241.658 237.636,243.991 244.5,247.5C 236.938,245.533 229.605,243.2 222.5,240.5 Z"/></g>
<g><path style="opacity:1" fill="#c5c3c4" d="M 169.5,242.5 C 168.432,241.566 167.099,241.232 165.5,241.5C 164.368,240.646 163.035,240.646 161.5,241.5C 160.414,241.62 159.747,242.287 159.5,243.5C 160.594,250.493 161.594,257.493 162.5,264.5C 162.672,265.492 162.338,266.158 161.5,266.5C 159.842,257.551 158.509,248.551 157.5,239.5C 161.833,239.5 166.167,239.5 170.5,239.5C 170.737,240.791 170.404,241.791 169.5,242.5 Z"/></g>
<g><path style="opacity:1" fill="#dfdfdf" d="M 119.5,247.5 C 120.209,246.596 121.209,246.263 122.5,246.5C 122.288,251.726 121.122,256.726 119,261.5C 117.322,263.553 115.489,263.887 113.5,262.5C 114.552,262.649 115.552,262.483 116.5,262C 119.443,258.007 121.11,253.507 121.5,248.5C 121.043,247.702 120.376,247.369 119.5,247.5 Z"/></g>
<g><path style="opacity:1" fill="#e1e0e0" d="M 70.5,251.5 C 64.4719,254.93 58.1386,255.93 51.5,254.5C 57.9459,254.144 64.2792,253.144 70.5,251.5 Z"/></g>
<g><path style="opacity:1" fill="#d4d4d4" d="M 165.5,241.5 C 167.099,241.232 168.432,241.566 169.5,242.5C 168.761,242.369 168.094,242.536 167.5,243C 168.915,246.73 170.082,250.563 171,254.5C 171.333,253.5 171.667,252.5 172,251.5C 172.422,253.355 172.922,255.189 173.5,257C 173.056,258.762 172.556,258.595 172,256.5C 171.51,257.793 171.343,259.127 171.5,260.5C 169.361,254.297 167.361,247.964 165.5,241.5 Z"/></g>
<g><path style="opacity:1" fill="#c3c1c2" d="M 122.5,246.5 C 121.209,246.263 120.209,246.596 119.5,247.5C 98.6266,253.135 77.6266,258.302 56.5,263C 51.0511,264.393 46.3845,263.226 42.5,259.5C 49.168,260.78 55.8347,260.613 62.5,259C 82.5835,254.019 102.583,248.852 122.5,243.5C 122.5,244.5 122.5,245.5 122.5,246.5 Z"/></g>
<g><path style="opacity:1" fill="#e1e0e0" d="M 167.5,267.5 C 165.399,264.203 164.065,260.537 163.5,256.5C 165.446,259.266 166.779,262.933 167.5,267.5 Z"/></g>
<g><path style="opacity:1" fill="#e1e1e1" d="M 198.5,260.5 C 194.833,259.167 191.167,259.167 187.5,260.5C 191.167,256.5 194.833,256.5 198.5,260.5 Z"/></g>
<g><path style="opacity:1" fill="#dadada" d="M 180.5,256.5 C 180.842,261.162 183.176,262.495 187.5,260.5C 183.996,263.531 181.329,262.864 179.5,258.5C 180.338,258.158 180.672,257.492 180.5,256.5 Z"/></g>
<g><path style="opacity:1" fill="#e0dfe0" d="M 139.5,256.5 C 138.748,263.507 137.082,270.173 134.5,276.5C 134.768,273.26 135.434,270.094 136.5,267C 136.43,266.235 136.097,265.735 135.5,265.5C 136.462,262.261 137.795,259.261 139.5,256.5 Z"/></g>
<g><path style="opacity:1" fill="#cfcecf" d="M 171.5,260.5 C 172.167,261.5 172.833,262.5 173.5,263.5C 174.167,266.167 174.833,268.833 175.5,271.5C 173,268.34 171.667,264.673 171.5,260.5 Z"/></g>
<g><path style="opacity:1" fill="#fdfdfd" d="M 173.5,263.5 C 174.976,265.769 176.476,268.102 178,270.5C 178.671,271.252 179.504,271.586 180.5,271.5C 185.148,277.179 189.148,276.679 192.5,270C 193.448,269.517 194.448,269.351 195.5,269.5C 198.268,276.302 196.101,280.302 189,281.5C 182.628,280.62 178.128,277.287 175.5,271.5C 174.833,268.833 174.167,266.167 173.5,263.5 Z"/></g>
<g><path style="opacity:1" fill="#c1bfc0" d="M 138.5,245.5 C 139.369,247.717 139.702,250.05 139.5,252.5C 139.5,253.833 139.5,255.167 139.5,256.5C 137.795,259.261 136.462,262.261 135.5,265.5C 132.564,275.199 127.231,283.365 119.5,290C 112.609,294.058 106.609,293.225 101.5,287.5C 109.816,291.801 116.983,290.135 123,282.5C 131.018,271.257 136.185,258.923 138.5,245.5 Z"/></g>
<g><path style="opacity:1" fill="#c4c2c3" d="M 195.5,269.5 C 194.448,269.351 193.448,269.517 192.5,270C 189.148,276.679 185.148,277.179 180.5,271.5C 184.74,273.523 187.74,272.357 189.5,268C 191.5,267.333 193.5,267.333 195.5,268C 196.738,268.69 196.738,269.19 195.5,269.5 Z"/></g>
<g><path style="opacity:1" fill="#c2c0c1" d="M 139.5,240.5 C 139.218,241.778 138.551,242.778 137.5,243.5C 135.632,242.243 133.965,242.576 132.5,244.5C 131.256,252.735 129.089,260.735 126,268.5C 124.684,271.308 122.85,273.641 120.5,275.5C 117.545,277.09 114.878,276.757 112.5,274.5C 114.343,273.717 116.343,273.05 118.5,272.5C 125.371,263.377 129.037,253.044 129.5,241.5C 132.807,240.949 136.14,240.616 139.5,240.5 Z"/></g>
<g><path style="opacity:1" fill="#fdfdfd" d="M 110.5,271.5 C 110.427,273.027 111.094,274.027 112.5,274.5C 114.878,276.757 117.545,277.09 120.5,275.5C 119.55,278.115 117.883,280.115 115.5,281.5C 111.34,283.001 107.34,282.667 103.5,280.5C 103.336,277.813 103.503,275.146 104,272.5C 105.898,270.316 108.064,269.983 110.5,271.5 Z"/></g>
<g><path style="opacity:1" fill="#d3d2d2" d="M 200.5,262.5 C 202.924,265.008 204.59,268.008 205.5,271.5C 204.833,272.833 204.167,274.167 203.5,275.5C 203.881,270.82 202.881,266.486 200.5,262.5 Z"/></g>
<g><path style="opacity:1" fill="#c5c4c4" d="M 110.5,271.5 C 108.064,269.983 105.898,270.316 104,272.5C 103.503,275.146 103.336,277.813 103.5,280.5C 102.883,280.389 102.383,280.056 102,279.5C 101.333,276.167 101.333,272.833 102,269.5C 102.5,269 103,268.5 103.5,268C 107.205,266.687 109.538,267.854 110.5,271.5 Z"/></g>
<g><path style="opacity:1" fill="#c5c3c3" d="M 152.5,239.5 C 151.082,241.308 149.082,241.975 146.5,241.5C 146.5,247.5 146.5,253.5 146.5,259.5C 142.954,278.684 138.621,297.684 133.5,316.5C 134.5,316.5 135.5,316.5 136.5,316.5C 134.735,317.461 132.735,317.795 130.5,317.5C 134.353,300.087 138.52,282.753 143,265.5C 144.297,256.886 144.797,248.219 144.5,239.5C 147.167,239.5 149.833,239.5 152.5,239.5 Z"/></g>
<g><path style="opacity:1" fill="#e0dfe0" d="M 157.5,275.5 C 159.924,281.526 161.591,287.859 162.5,294.5C 160.076,288.474 158.409,282.141 157.5,275.5 Z"/></g>
<g><path style="opacity:1" fill="#e0e0e0" d="M 134.5,276.5 C 132.61,285.826 129.944,294.826 126.5,303.5C 128.409,294.18 131.076,285.18 134.5,276.5 Z"/></g>
<g><path style="opacity:1" fill="#c2c0c1" d="M 205.5,271.5 C 206.029,287.666 198.695,293.666 183.5,289.5C 194.076,290.85 200.742,286.184 203.5,275.5C 204.167,274.167 204.833,272.833 205.5,271.5 Z"/></g>
<g><path style="opacity:1" fill="#dddddd" d="M 103.5,280.5 C 107.34,282.667 111.34,283.001 115.5,281.5C 114.054,282.94 112.221,283.607 110,283.5C 107.198,283.68 105.031,282.68 103.5,280.5 Z"/></g>
<g><path style="opacity:1" fill="#e1e1e1" d="M 112.5,301.5 C 111.833,301.5 111.167,301.5 110.5,301.5C 109.081,300.549 107.415,300.216 105.5,300.5C 102.794,300.425 100.127,300.092 97.5,299.5C 97.5,300.5 97.5,301.5 97.5,302.5C 95.8947,300.692 95.5613,298.692 96.5,296.5C 101.256,298.353 106.256,299.52 111.5,300C 112.056,300.383 112.389,300.883 112.5,301.5 Z"/></g>
<g><path style="opacity:1" fill="#cfcece" d="M 162.5,264.5 C 167.94,280.501 172.606,296.834 176.5,313.5C 175.833,315.167 175.167,316.833 174.5,318.5C 172.219,300.656 167.886,283.323 161.5,266.5C 162.338,266.158 162.672,265.492 162.5,264.5 Z"/></g>
<g><path style="opacity:1" fill="#eeeeee" d="M 201.5,298.5 C 202.87,302.051 201.536,303.718 197.5,303.5C 195.517,303.157 194.183,303.824 193.5,305.5C 191.771,304.883 190.271,303.883 189,302.5C 188.601,302.728 188.435,303.062 188.5,303.5C 187.209,302.458 187.209,301.292 188.5,300C 192.917,299.772 197.25,299.272 201.5,298.5 Z"/></g>
<g><path style="opacity:1" fill="#d2d1d1" d="M 105.5,300.5 C 103.951,302.405 102.118,302.739 100,301.5C 97.9045,302.715 98.0712,303.549 100.5,304C 99.3636,305.145 98.3636,306.312 97.5,307.5C 97.5,305.833 97.5,304.167 97.5,302.5C 97.5,301.5 97.5,300.5 97.5,299.5C 100.127,300.092 102.794,300.425 105.5,300.5 Z"/></g>
<g><path style="opacity:1" fill="#f0f1f1" d="M 105.5,300.5 C 107.415,300.216 109.081,300.549 110.5,301.5C 106.997,304.667 102.997,307 98.5,308.5C 97.8333,308.5 97.5,308.167 97.5,307.5C 98.3636,306.312 99.3636,305.145 100.5,304C 98.0712,303.549 97.9045,302.715 100,301.5C 102.118,302.739 103.951,302.405 105.5,300.5 Z"/></g>
<g><path style="opacity:1" fill="#cac9ca" d="M 201.5,298.5 C 202.995,298.415 203.995,299.081 204.5,300.5C 204.086,302.919 203.086,304.919 201.5,306.5C 200.09,305.172 198.924,305.505 198,307.5C 197.51,306.207 197.343,304.873 197.5,303.5C 201.536,303.718 202.87,302.051 201.5,298.5 Z"/></g>
<g><path style="opacity:1" fill="#c8c7c7" d="M 193.5,305.5 C 195.139,306.473 196.473,307.806 197.5,309.5C 193.975,308.241 190.975,306.241 188.5,303.5C 188.435,303.062 188.601,302.728 189,302.5C 190.271,303.883 191.771,304.883 193.5,305.5 Z"/></g>
<g><path style="opacity:1" fill="#c5c4c4" d="M 110.5,301.5 C 111.167,301.5 111.833,301.5 112.5,301.5C 112.586,302.496 112.252,303.329 111.5,304C 107.418,307.038 103.085,309.538 98.5,311.5C 98.5,310.5 98.5,309.5 98.5,308.5C 102.997,307 106.997,304.667 110.5,301.5 Z"/></g>
<g><path style="opacity:1" fill="#e0dfe0" d="M 197.5,303.5 C 197.343,304.873 197.51,306.207 198,307.5C 198.924,305.505 200.09,305.172 201.5,306.5C 201.5,307.167 201.5,307.833 201.5,308.5C 200.778,308.918 200.278,309.584 200,310.5C 199.329,309.748 198.496,309.414 197.5,309.5C 196.473,307.806 195.139,306.473 193.5,305.5C 194.183,303.824 195.517,303.157 197.5,303.5 Z"/></g>
<g><path style="opacity:1" fill="#e0dfe0" d="M 159.5,315.5 C 157.629,315.141 156.129,314.141 155,312.5C 154.511,317.528 152.677,321.862 149.5,325.5C 151.489,320.534 153.322,315.534 155,310.5C 156.707,312.037 158.207,313.704 159.5,315.5 Z"/></g>
<g><path style="opacity:1" fill="#c6c5c5" d="M 201.5,308.5 C 201.368,313.439 200.035,313.772 197.5,309.5C 198.496,309.414 199.329,309.748 200,310.5C 200.278,309.584 200.778,308.918 201.5,308.5 Z"/></g>
<g><path style="opacity:1" fill="#ebebeb" d="M 117.5,318.5 C 116.399,319.848 115.399,321.348 114.5,323C 115.788,323.239 116.788,322.739 117.5,321.5C 119.553,321.402 121.22,322.069 122.5,323.5C 119.562,325.934 116.729,328.601 114,331.5C 113.308,330.975 112.808,330.308 112.5,329.5C 118.23,324.362 117.563,323.362 110.5,326.5C 110.167,326.167 109.833,325.833 109.5,325.5C 111.211,323.76 112.044,321.76 112,319.5C 110.833,320.667 109.667,321.833 108.5,323C 107.563,323.692 106.897,323.525 106.5,322.5C 109.147,320.189 111.814,317.856 114.5,315.5C 115.855,316.188 116.855,317.188 117.5,318.5 Z"/></g>
<g><path style="opacity:1" fill="#c6c5c5" d="M 187.5,319.5 C 186.167,320.167 184.833,320.833 183.5,321.5C 181.451,321.294 181.117,320.461 182.5,319C 184.197,318.616 185.863,318.782 187.5,319.5 Z"/></g>
<g><path style="opacity:1" fill="#d0cfd0" d="M 144.5,314.5 C 145.917,317.998 146.583,321.665 146.5,325.5C 145.21,324.942 144.377,323.942 144,322.5C 143.199,319.633 143.366,316.966 144.5,314.5 Z"/></g>
<g><path style="opacity:1" fill="#c4c2c3" d="M 176.5,313.5 C 177.435,316.113 177.602,318.779 177,321.5C 172.165,327.246 166.665,327.913 160.5,323.5C 158.555,326.393 156.889,329.393 155.5,332.5C 153.389,333.742 151.389,333.742 149.5,332.5C 153.452,329.284 156.452,325.284 158.5,320.5C 160.968,322.069 163.634,323.069 166.5,323.5C 170.262,323.3 172.928,321.634 174.5,318.5C 175.167,316.833 175.833,315.167 176.5,313.5 Z"/></g>
<g><path style="opacity:1" fill="#c4c2c3" d="M 117.5,318.5 C 118.625,319.348 118.625,320.348 117.5,321.5C 116.788,322.739 115.788,323.239 114.5,323C 115.399,321.348 116.399,319.848 117.5,318.5 Z"/></g>
<g><path style="opacity:1" fill="#c1bfc0" d="M 139.5,324.5 C 135.135,325.773 130.801,325.773 126.5,324.5C 130.737,323.599 135.07,322.599 139.5,321.5C 139.5,322.5 139.5,323.5 139.5,324.5 Z"/></g>
<g><path style="opacity:1" fill="#e8e8e8" d="M 187.5,319.5 C 185.863,318.782 184.197,318.616 182.5,319C 181.117,320.461 181.451,321.294 183.5,321.5C 184.708,324.044 186.708,325.378 189.5,325.5C 189.276,320.855 190.61,320.522 193.5,324.5C 191.458,326.18 189.124,327.513 186.5,328.5C 184.7,328.098 183.033,327.431 181.5,326.5C 178.434,322.11 179.434,318.777 184.5,316.5C 185.855,317.188 186.855,318.188 187.5,319.5 Z"/></g>
<g><path style="opacity:1" fill="#c6c4c5" d="M 122.5,323.5 C 122.804,324.15 123.137,324.817 123.5,325.5C 120.5,327.833 117.833,330.5 115.5,333.5C 111.909,331.023 108.742,328.023 106,324.5C 105.308,323.563 105.475,322.897 106.5,322.5C 106.897,323.525 107.563,323.692 108.5,323C 109.667,321.833 110.833,320.667 112,319.5C 112.044,321.76 111.211,323.76 109.5,325.5C 109.833,325.833 110.167,326.167 110.5,326.5C 117.563,323.362 118.23,324.362 112.5,329.5C 112.808,330.308 113.308,330.975 114,331.5C 116.729,328.601 119.562,325.934 122.5,323.5 Z"/></g>
<g><path style="opacity:1" fill="#c8c7c7" d="M 193.5,324.5 C 191.647,330.373 187.98,331.873 182.5,329C 181.748,328.329 181.414,327.496 181.5,326.5C 183.033,327.431 184.7,328.098 186.5,328.5C 189.124,327.513 191.458,326.18 193.5,324.5 Z"/></g>
<g><path style="opacity:1" fill="#d6d5d5" d="M 172.5,332.5 C 171.735,331.34 170.735,330.34 169.5,329.5C 169.086,333.365 170.419,336.698 173.5,339.5C 174.518,338.807 175.518,338.141 176.5,337.5C 177.598,338.397 177.598,339.23 176.5,340C 175.034,340.635 173.7,341.469 172.5,342.5C 170.672,338.68 168.672,334.847 166.5,331C 169.966,325.903 171.966,326.403 172.5,332.5 Z"/></g>
<g><path style="opacity:1" fill="#eeeeee" d="M 172.5,332.5 C 173.593,334.349 174.926,336.016 176.5,337.5C 175.518,338.141 174.518,338.807 173.5,339.5C 170.419,336.698 169.086,333.365 169.5,329.5C 170.735,330.34 171.735,331.34 172.5,332.5 Z"/></g>
<g><path style="opacity:1" fill="#eaeaea" d="M 138.5,332.5 C 138.5,333.5 138.5,334.5 138.5,335.5C 136.089,335.137 134.589,336.137 134,338.5C 133.37,336.097 134.203,334.263 136.5,333C 133.125,333.485 131.459,335.651 131.5,339.5C 129.833,340.833 128.167,340.833 126.5,339.5C 128.693,336.582 129.693,333.248 129.5,329.5C 132.916,329.528 135.916,330.528 138.5,332.5 Z"/></g>
<g><path style="opacity:1" fill="#d6d6d6" d="M 145.5,332.5 C 146.833,332.5 148.167,332.5 149.5,332.5C 151.389,333.742 153.389,333.742 155.5,332.5C 156.167,333.167 156.833,333.833 157.5,334.5C 155.027,334.736 153.36,336.069 152.5,338.5C 151.833,337.167 151.167,335.833 150.5,334.5C 149.513,337.768 149.18,341.102 149.5,344.5C 150.5,344.5 151.5,344.5 152.5,344.5C 152.556,338.176 153.556,338.176 155.5,344.5C 153.236,345.219 150.903,345.552 148.5,345.5C 149.161,340.684 148.161,336.351 145.5,332.5 Z"/></g>
<g><path style="opacity:1" fill="#eeeeee" d="M 157.5,334.5 C 157.703,336.39 157.037,337.89 155.5,339C 156.87,340.441 157.87,342.108 158.5,344C 157.552,344.483 156.552,344.649 155.5,344.5C 153.556,338.176 152.556,338.176 152.5,344.5C 151.5,344.5 150.5,344.5 149.5,344.5C 149.18,341.102 149.513,337.768 150.5,334.5C 151.167,335.833 151.833,337.167 152.5,338.5C 153.36,336.069 155.027,334.736 157.5,334.5 Z"/></g>
<g><path style="opacity:1" fill="#c8c6c7" d="M 138.5,332.5 C 139.451,333.919 139.784,335.585 139.5,337.5C 137.821,337.285 136.821,337.952 136.5,339.5C 135.542,339.953 134.708,340.619 134,341.5C 133.333,338.833 132.667,338.833 132,341.5C 131.536,340.906 131.369,340.239 131.5,339.5C 131.459,335.651 133.125,333.485 136.5,333C 134.203,334.263 133.37,336.097 134,338.5C 134.589,336.137 136.089,335.137 138.5,335.5C 138.5,334.5 138.5,333.5 138.5,332.5 Z"/></g>
<g><path style="opacity:1" fill="#d2d1d2" d="M 126.5,339.5 C 128.167,340.833 129.833,340.833 131.5,339.5C 131.369,340.239 131.536,340.906 132,341.5C 132.667,338.833 133.333,338.833 134,341.5C 134.708,340.619 135.542,339.953 136.5,339.5C 137.598,340.601 137.765,341.934 137,343.5C 133.707,344.531 130.54,344.031 127.5,342C 126.748,341.329 126.414,340.496 126.5,339.5 Z"/></g>
<g><path style="opacity:1" fill="#c8c6c7" d="M 157.5,334.5 C 158.695,334.866 159.361,335.699 159.5,337C 158.409,339.933 158.743,342.766 160.5,345.5C 156.351,346.809 152.351,346.809 148.5,345.5C 150.903,345.552 153.236,345.219 155.5,344.5C 156.552,344.649 157.552,344.483 158.5,344C 157.87,342.108 156.87,340.441 155.5,339C 157.037,337.89 157.703,336.39 157.5,334.5 Z"/></g>
</svg>
